<?xml version="1.0" encoding="utf-8"?><svg xmlns="http://www.w3.org/2000/svg" xmlns:xlink="http://www.w3.org/1999/xlink"><symbol viewBox="0 0 12.31 13.22" id="ico-tel" xmlns="http://www.w3.org/2000/svg"><path d="M11.731 10.15L9.878 8.164c-.37-.394-.98-.382-1.363.027l-.933 1c-.06-.034-.12-.07-.185-.11-.59-.35-1.396-.83-2.245-1.74-.852-.913-1.3-1.78-1.628-2.411a8.408 8.408 0 0 0-.1-.193l.626-.671.309-.33c.382-.41.393-1.066.024-1.461L2.53.288c-.368-.394-.98-.382-1.362.028L.645.879.66.894c-.175.24-.322.516-.43.814a3.508 3.508 0 0 0-.192.825C-.207 4.707.72 6.695 3.236 9.39c3.478 3.727 6.28 3.446 6.401 3.432a2.962 2.962 0 0 0 1.529-.667l.011.01.53-.555c.381-.41.392-1.065.024-1.46z"/></symbol></svg>