<svg width="60" height="68" viewBox="0 0 60 68" fill="none" xmlns="http://www.w3.org/2000/svg">
<path d="M58.2345 4.9126V52.8984" stroke="#D3990B" stroke-width="2" stroke-miterlimit="10"/>
<path d="M58.2345 60.3344V57.309" stroke="#D3990B" stroke-width="2" stroke-miterlimit="10"/>
<path d="M23.0462 22.0313H11.3721V13.038H29.7928" stroke="#D3990B" stroke-width="2" stroke-miterlimit="10"/>
<path d="M39.9925 66.5576H5.32119C4.17515 66.5576 3.07604 66.1023 2.26567 65.292C1.4553 64.4816 1.00004 63.3825 1.00004 62.2364V9.51463C0.996679 8.39768 1.21378 7.29105 1.63889 6.25816C2.064 5.22526 2.68877 4.28642 3.47739 3.49542C4.26601 2.70443 5.20299 2.07684 6.2346 1.64863C7.26622 1.22041 8.37219 0.999995 9.48914 1H51.6666V11.4295" stroke="#D3990B" stroke-width="2" stroke-miterlimit="10"/>
<path d="M32.9906 57.3089H5.36585C4.79253 57.3089 4.22481 57.4218 3.69513 57.6412C3.16544 57.8606 2.68415 58.1822 2.27875 58.5876C1.87335 58.993 1.55176 59.4743 1.33236 60.004C1.11295 60.5337 1.00003 61.1014 1.00003 61.6747V62.1917C1.00003 62.7651 1.11295 63.3328 1.33236 63.8625C1.55176 64.3922 1.87335 64.8734 2.27875 65.2788C2.68415 65.6843 3.16544 66.0058 3.69513 66.2252C4.22481 66.4446 4.79253 66.5576 5.36585 66.5576H32.4416C32.8757 64.464 33.6097 62.8683 33.7182 60.7365C34.0756 53.3388 22.7653 52.0367 20.3462 43.9051C19.4782 39.1244 20.5888 36.9351 19.2484 29.6715C19.0186 26.6715 22.5355 26.0971 24.2078 28.9055C25.995 34.3947 28.7588 36.067 29.1928 40.5924C29.3836 42.0084 29.0225 43.4436 28.1843 44.6008" stroke="#D3990B" stroke-width="2" stroke-miterlimit="10"/>
<path d="M48.6412 66.5576C47.6667 63.4853 47.571 59.8174 48.3539 55.5537C50.7985 53.7665 51.6219 50.3772 51.6666 46.2156V18.6612C49.5028 7.99552 35.7097 8.57636 32.7863 17.5378L29.1609 39.5775" stroke="#D3990B" stroke-width="2" stroke-miterlimit="10"/>
<path d="M35.9011 33.7884L38.3074 11.5571" stroke="#D3990B" stroke-width="2" stroke-miterlimit="10"/>
<path d="M41.2627 33.3607C41.3776 32.8437 42.4116 10.7401 42.4116 10.7401" stroke="#D3990B" stroke-width="2" stroke-miterlimit="10"/>
<path d="M47.0838 30.3034C47.1412 29.9587 47.0838 11.9592 47.0838 11.9592" stroke="#D3990B" stroke-width="2" stroke-miterlimit="10"/>
</svg>
