<svg width="57" height="70" viewBox="0 0 57 70" fill="none" xmlns="http://www.w3.org/2000/svg">
<path d="M22.2012 53.1349V32.2344C15.2116 32.639 15.9772 23.7386 22.7303 25.0892C24.9647 22.5062 28.9543 21.9772 31.2012 24.9025C38.446 24.9025 39.4792 30.6722 33.473 32.2344V53.1349" stroke="#D3990B" stroke-width="2" stroke-miterlimit="10"/>
<path d="M16.4191 53.1348V48.1556C14.1784 41.1971 11.0228 36.3299 11.0228 27.4606C11.7324 10.083 35.9191 3.63484 43.6183 21.7655L46.9295 36.305H41.2407V47.3713H33.473" stroke="#D3990B" stroke-width="2" stroke-miterlimit="10"/>
<path d="M20.1597 58.2635H29.2904" stroke="#D3990B" stroke-width="2" stroke-miterlimit="10"/>
<path d="M35.5083 63.2676H14.8879C13.8236 61.5996 13.7489 59.9813 14.8879 58.4253C13.6431 56.2407 13.9668 54.5726 14.8879 53.0851H35.5083C36.0065 53.8406 36.272 54.7257 36.272 55.6307C36.272 56.5357 36.0065 57.4208 35.5083 58.1763C36.0065 58.9319 36.272 59.817 36.272 60.722C36.272 61.627 36.0065 62.5121 35.5083 63.2676V63.2676Z" stroke="#D3990B" stroke-width="2" stroke-miterlimit="10"/>
<path d="M23.527 30.0373C24.9466 30.0373 26.0975 28.8864 26.0975 27.4668C26.0975 26.0471 24.9466 24.8962 23.527 24.8962C22.1073 24.8962 20.9564 26.0471 20.9564 27.4668C20.9564 28.8864 22.1073 30.0373 23.527 30.0373Z" stroke="#D3990B" stroke-width="2" stroke-miterlimit="10"/>
<path d="M31.2012 30.0373C32.6209 30.0373 33.7717 28.8864 33.7717 27.4668C33.7717 26.0471 32.6209 24.8962 31.2012 24.8962C29.7815 24.8962 28.6307 26.0471 28.6307 27.4668C28.6307 28.8864 29.7815 30.0373 31.2012 30.0373Z" stroke="#D3990B" stroke-width="2" stroke-miterlimit="10"/>
<path d="M19.2822 63.305C21.2863 69.6473 27.6162 69.6473 30.1743 63.305" stroke="#D3990B" stroke-width="2" stroke-miterlimit="10"/>
<path d="M0 28.3755H3.62241" stroke="#D3990B" stroke-width="2" stroke-miterlimit="10"/>
<path d="M2.17841 39.4046L5.50205 37.973" stroke="#D3990B" stroke-width="2" stroke-miterlimit="10"/>
<path d="M8.40869 48.6909L10.9108 46.0643" stroke="#D3990B" stroke-width="2" stroke-miterlimit="10"/>
<path d="M46.1328 46.0768L48.6597 48.6784" stroke="#D3990B" stroke-width="2" stroke-miterlimit="10"/>
<path d="M51.4605 38.0228L54.8278 39.361" stroke="#D3990B" stroke-width="2" stroke-miterlimit="10"/>
<path d="M53.3776 28.5H57" stroke="#D3990B" stroke-width="2" stroke-miterlimit="10"/>
<path d="M46.1141 10.9108L48.6722 8.3465" stroke="#D3990B" stroke-width="2" stroke-miterlimit="10"/>
<path d="M10.9419 10.861L8.37756 8.29666" stroke="#D3990B" stroke-width="2" stroke-miterlimit="10"/>
<path d="M28.5187 3.62241V0" stroke="#D3990B" stroke-width="2" stroke-miterlimit="10"/>
<path d="M38.0415 5.50205L39.417 2.14728" stroke="#D3990B" stroke-width="2" stroke-miterlimit="10"/>
<path d="M18.9896 5.30915L17.5892 1.96683" stroke="#D3990B" stroke-width="2" stroke-miterlimit="10"/>
<path d="M5.51451 19.0768L2.18463 17.6452" stroke="#D3990B" stroke-width="2" stroke-miterlimit="10"/>
<path d="M54.8215 17.6888L51.4605 19.027" stroke="#D3990B" stroke-width="2" stroke-miterlimit="10"/>
</svg>
