<svg width="15" height="15" viewBox="0 0 15 15" fill="none" xmlns="http://www.w3.org/2000/svg">
<path d="M10.2602 1H4.73983C2.67438 1 1 2.67438 1 4.73982V10.2602C1 12.3256 2.67438 14 4.73983 14H10.2602C12.3256 14 14 12.3256 14 10.2602V4.73982C14 2.67438 12.3256 1 10.2602 1Z" stroke="white" stroke-width="1.5" stroke-miterlimit="10"/>
<path d="M7.50005 10.3966C9.09948 10.3966 10.3961 9.09997 10.3961 7.50053C10.3961 5.90109 9.09948 4.60449 7.50005 4.60449C5.90061 4.60449 4.604 5.90109 4.604 7.50053C4.604 9.09997 5.90061 10.3966 7.50005 10.3966Z" stroke="white" stroke-width="1.5" stroke-miterlimit="10"/>
<path d="M11.2181 4.58945C11.5893 4.58945 11.8902 4.28851 11.8902 3.91728C11.8902 3.54606 11.5893 3.24512 11.2181 3.24512C10.8468 3.24512 10.5459 3.54606 10.5459 3.91728C10.5459 4.28851 10.8468 4.58945 11.2181 4.58945Z" fill="white"/>
</svg>
