<svg width="14" height="11" viewBox="0 0 14 11" fill="none" xmlns="http://www.w3.org/2000/svg">
<path d="M14 1.36091L13.9147 1.45219C13.5678 1.92401 13.1455 2.33995 12.6635 2.68457C12.6299 2.70628 12.6033 2.73656 12.5865 2.77203C12.5698 2.8075 12.5636 2.84675 12.5687 2.8854C12.6122 4.32519 12.2533 5.7498 11.5297 7.01038C10.8061 8.27095 9.74416 9.32121 8.45498 10.0514C7.02916 10.7952 5.40562 11.113 3.79147 10.9643C2.49829 10.8871 1.24339 10.5114 0.132701 9.86886L0 9.80496C0.740971 9.87991 1.48996 9.82109 2.20853 9.63151C2.93151 9.42219 3.60465 9.07789 4.18957 8.61823C3.59994 8.59721 3.03052 8.40573 2.55547 8.06869C2.08041 7.73166 1.72171 7.26469 1.52607 6.72859C1.74408 6.72859 1.95261 6.72859 2.15166 6.72859C2.35244 6.71445 2.55196 6.687 2.74882 6.64643C2.10632 6.50493 1.53331 6.15626 1.12474 5.65818C0.716178 5.16011 0.496591 4.54254 0.50237 3.90782C0.701422 3.98084 0.900474 4.07213 1.109 4.1269C1.31724 4.17818 1.52975 4.21178 1.74408 4.22732C1.1593 3.81522 0.751335 3.21126 0.597156 2.52938C0.444184 1.84431 0.569698 1.12884 0.947867 0.530194C1.66809 1.37739 2.5632 2.07126 3.57646 2.56782C4.58972 3.06439 5.69905 3.35283 6.83412 3.41487C6.83412 3.22316 6.83412 3.05885 6.78673 2.8854C6.76494 2.49438 6.83047 2.10341 6.9789 1.73885C7.12733 1.3743 7.35521 1.04463 7.64717 0.772103C7.93914 0.499573 8.28839 0.290511 8.67137 0.159019C9.05436 0.0275273 9.46217 -0.0233367 9.8673 0.009858C10.5504 0.0560213 11.1932 0.338024 11.6777 0.804055C11.7025 0.832559 11.7358 0.853079 11.7731 0.862868C11.8104 0.872657 11.8498 0.871247 11.8863 0.858828C12.4215 0.744146 12.9381 0.559883 13.4218 0.311105L13.5735 0.238076C13.483 0.55422 13.3212 0.847228 13.0995 1.09617C12.8815 1.33352 12.6351 1.54348 12.3886 1.7717L13.3365 1.53435C13.4976 1.53435 13.6493 1.42481 13.8104 1.37004H13.9526L14 1.36091Z" fill="white"/>
</svg>
