<svg width="12" height="13" viewBox="0 0 12 13" fill="none" xmlns="http://www.w3.org/2000/svg">
<path d="M11.731 10.1502L9.87777 8.16364C9.50864 7.76959 8.89736 7.78156 8.51538 8.19114L7.58172 9.19164C7.52274 9.15679 7.46168 9.12039 7.39749 9.08178C6.80789 8.73163 6.00093 8.2517 5.15177 7.34088C4.3001 6.42814 3.85192 5.56189 3.52424 4.92953C3.48966 4.86254 3.45653 4.79795 3.42381 4.73661L4.05043 4.06598L4.3585 3.73537C4.74107 3.32521 4.75162 2.67021 4.38336 2.27501L2.53014 0.288237C2.16188 -0.106405 1.55033 -0.094433 1.16776 0.315729L0.645456 0.87876L0.659729 0.893947C0.484595 1.13347 0.338248 1.40972 0.229341 1.70762C0.128949 1.99119 0.0664456 2.26178 0.0378657 2.53293C-0.206839 4.70731 0.720198 6.69452 3.23606 9.39114C6.71374 13.1184 9.5163 12.8368 9.6372 12.823C9.90052 12.7893 10.1529 12.7219 10.4093 12.6151C10.6849 12.4998 10.9424 12.3431 11.1658 12.1558L11.1772 12.1667L11.7063 11.6113C12.0881 11.2012 12.0991 10.546 11.731 10.1502Z" fill="#D3990B"/>
</svg>
