<svg width="24" height="28" viewBox="0 0 24 28" fill="none" xmlns="http://www.w3.org/2000/svg">
<path d="M11.8977 0H12.1138C12.2025 0.0377344 12.2884 0.083125 12.3797 0.109375C16.1655 1.29245 19.9531 2.47187 23.7425 3.64766C23.9457 3.71055 23.9998 3.7975 23.9998 4.00477C23.9925 7.23862 23.9925 10.4725 23.9998 13.7063C24.0086 14.8294 23.7809 15.9414 23.3318 16.9684C22.5622 18.7338 21.4122 20.2333 20.1001 21.6109C17.7801 24.0461 15.1196 26.046 12.2895 27.8255C12.2084 27.8764 12.1365 27.9415 12.0603 28H11.9522C11.8997 27.9536 11.8445 27.9103 11.7869 27.8704C9.355 26.361 7.06525 24.6602 4.97762 22.6877C3.50498 21.2953 2.17177 19.7821 1.17417 17.9933C0.422986 16.6463 -0.0147518 15.2212 0.000379847 13.6505C0.0263199 10.4338 0.0101074 7.21656 0.000379847 3.99984C0.000379847 3.79148 0.0544209 3.70891 0.258158 3.64656C3.41383 2.67313 6.56717 1.69258 9.71816 0.704922C10.4493 0.477969 11.1724 0.235703 11.8977 0ZM10.9935 25.0759L11.0665 25.007V2.1618L1.85131 5.1007V5.29703C1.85131 8.2137 1.85257 11.1304 1.85509 14.047C1.85814 14.3293 1.8829 14.6109 1.92913 14.8892C2.14529 16.2438 2.75651 17.4207 3.53957 18.5161C4.68904 20.1255 6.10871 21.4692 7.65917 22.6669C8.74432 23.503 9.88028 24.2747 10.9935 25.0759ZM12.9358 25.0359C12.9727 25.0215 13.0087 25.005 13.0439 24.9867C14.9732 23.7836 16.7965 22.4399 18.4329 20.8496C19.4684 19.8423 20.4081 18.7529 21.1247 17.4836C21.7311 16.409 22.1445 15.2709 22.1477 14.017C22.1548 11.1289 22.1477 8.24086 22.1548 5.35227C22.1548 5.14992 22.0872 5.07883 21.9024 5.01758C19.4478 4.24284 16.9956 3.46227 14.5457 2.67586L12.9374 2.16453L12.9358 25.0359Z" fill="#D3990B"/>
</svg>
