<svg width="135" height="74" viewBox="0 0 135 74" fill="none" xmlns="http://www.w3.org/2000/svg">
<path fill-rule="evenodd" clip-rule="evenodd" d="M135 0H108.888V6.57702H128.423V66.9614H6.57702V6.57702H71.1497V0H0V73.5384H135V0Z" fill="#D3990B"/>
<path d="M42.5985 29.6285C42.3644 28.93 42.2446 28.1982 42.2437 27.4615V25.8014C42.2437 23.495 41.6101 22.4242 39.2657 22.4242C38.4088 22.4167 37.5554 22.5319 36.7312 22.7663L36.8769 24.7496C37.4918 24.303 38.2405 24.0795 38.9996 24.1159C39.9753 24.1159 40.2668 24.6038 40.3428 25.2248C40.2541 25.2248 39.8043 25.2248 39.3544 25.2248C37.2317 25.2248 36.0089 26.1309 36.0089 27.7149C36.0089 29.0836 36.7692 29.9706 38.3786 29.9706C38.7995 29.9458 39.2103 29.8318 39.5839 29.6363C39.9575 29.4408 40.2853 29.1681 40.5456 28.8364C40.5456 29.0329 40.6913 29.5905 40.7674 29.8883L42.5985 29.6285ZM40.3428 27.3031C40.1535 27.6062 39.8941 27.8595 39.5864 28.0414C39.2788 28.2234 38.9319 28.3287 38.575 28.3486C38.0555 28.3486 37.8083 28.0951 37.8083 27.6516C37.8083 27.0179 38.3723 26.7645 39.4684 26.7645H40.3302L40.3428 27.3031Z" fill="white"/>
<path d="M43.8975 29.7739C44.2777 29.7739 45.6653 29.8753 46.8121 29.8753C49.2136 29.8753 49.9803 28.7981 49.9803 27.6766C50.0148 27.2821 49.9055 26.8885 49.6726 26.5683C49.4397 26.2481 49.0989 26.0228 48.713 25.9341C49.0166 25.7947 49.2722 25.5688 49.4481 25.2848C49.6239 25.0008 49.712 24.6713 49.7015 24.3374C49.7015 23.2159 48.9221 22.4365 46.8755 22.4365C45.1077 22.4365 43.8721 22.5316 43.8721 22.5316L43.8975 29.7739ZM45.7667 26.8275C46.0835 26.8275 46.3369 26.8275 46.7171 26.8275C47.7056 26.8275 47.9844 27.1063 47.9844 27.5309C47.9844 27.9554 47.5662 28.3482 46.6537 28.3482C46.3569 28.3358 46.0608 28.3083 45.7667 28.2659V26.8275ZM45.7667 25.4336V24.0333C46.1405 24.0333 46.2799 23.9826 46.6791 23.9826C47.4965 23.9826 47.7309 24.274 47.7309 24.6732C47.7309 25.0724 47.4331 25.4336 46.6411 25.4336H45.7667Z" fill="white"/>
<path d="M51.3996 22.5442V32.5301L53.3702 32.4097V29.6408C53.8624 29.8439 54.3901 29.9473 54.9226 29.9449C57.0642 29.9449 58.5532 28.5953 58.5532 26.0671C58.5532 23.4249 57.2226 22.4111 55.5435 22.4111C55.0937 22.4151 54.6506 22.5202 54.2469 22.7187C53.8433 22.9172 53.4895 23.2041 53.2118 23.558L53.0914 22.5442H51.3996ZM53.3702 25.2244C53.5549 24.9301 53.8035 24.6811 54.0974 24.4957C54.3913 24.3104 54.7231 24.1935 55.0683 24.1536C55.8477 24.1536 56.5193 24.5464 56.5193 26.1559C56.5193 27.5688 55.8223 28.2785 54.7642 28.2785C54.269 28.2887 53.7826 28.1472 53.3702 27.873V25.2244Z" fill="white"/>
<path d="M59.9472 29.7992H61.9241V27.0175H62.8745C63.128 28.836 64.1418 30.0463 66.2644 30.0463C68.5518 30.0463 69.8127 28.2975 69.8127 26.1685C69.8127 24.0395 68.8243 22.3667 66.3468 22.3667C65.5147 22.3192 64.6953 22.5868 64.0517 23.1164C63.4082 23.6461 62.9879 24.3987 62.8745 25.2244H61.9241V22.5442H59.9472V29.7992ZM64.7754 26.1558C64.7754 24.8886 65.3203 24.0332 66.3088 24.0332C67.2972 24.0332 67.7534 24.7999 67.7534 26.1938C67.7534 27.5878 67.2782 28.3862 66.2327 28.3862C65.3013 28.3608 64.7754 27.6195 64.7754 26.1558Z" fill="white"/>
<path d="M75.0211 22.5444V28.0696H73.1456V22.5444H71.1687V29.7931H80.8505V22.5444H78.8736V28.0696H76.998V22.5444H75.0211Z" fill="white"/>
<path d="M86.9523 29.7994H89.4044L86.3693 25.9976L89.0876 22.519H86.7558L85.1845 24.8128C84.9627 25.1296 84.7916 25.326 84.6586 25.326H84.5762V22.5444H82.5993V29.7994H84.5762V26.8277H84.6586C84.8043 26.8277 84.9057 26.9671 85.1718 27.3283L86.9523 29.7994Z" fill="white"/>
<path d="M92.0593 29.7931L94.9613 25.6048H95.0183L94.8979 26.6186V29.7931H96.8622V22.5444H95.0183L92.1543 26.8658H92.1037L92.205 25.8646V22.5444H90.2281V29.7931H92.0593Z" fill="white"/>
<path d="M105.188 29.7931V22.5444H103.205V25.2437H100.62V22.5444H98.63V29.7931H100.62V26.9861H103.205V29.7931H105.188Z" fill="white"/>
<path d="M38.1632 44.322C37.5296 43.6884 36.5411 42.757 35.9709 42.174C36.433 41.2098 36.7102 40.1674 36.7882 39.1009H34.9951C34.9371 39.6654 34.8268 40.2233 34.6656 40.7674C34.1397 40.2161 33.9559 40.0197 33.6771 39.6712C34.4945 39.0376 35.2485 38.1949 35.2485 37.105C35.2526 36.8206 35.1965 36.5386 35.0841 36.2773C34.9716 36.0161 34.8053 35.7815 34.596 35.5889C34.3867 35.3964 34.1391 35.2501 33.8694 35.1598C33.5996 35.0695 33.3139 35.0371 33.0308 35.0648C32.7078 35.0356 32.3823 35.0743 32.0751 35.1784C31.7679 35.2826 31.486 35.4498 31.2473 35.6694C31.0086 35.889 30.8185 36.1561 30.6891 36.4535C30.5598 36.751 30.4941 37.0722 30.4963 37.3965C30.5095 38.1192 30.7538 38.8186 31.1933 39.3924C30.7771 39.6888 30.4352 40.0776 30.1944 40.5284C29.9536 40.9791 29.8206 41.4795 29.8057 41.9903C29.8057 43.5997 31.0349 44.4044 32.6317 44.4044C33.4411 44.4044 34.2228 44.1093 34.8303 43.5743L35.5843 44.322H38.1632ZM32.676 42.738C32.5539 42.7521 32.4302 42.7406 32.3128 42.7044C32.1953 42.6682 32.0867 42.6079 31.9938 42.5275C31.9008 42.4471 31.8256 42.3482 31.7729 42.2372C31.7202 42.1262 31.6911 42.0054 31.6876 41.8826C31.697 41.6775 31.7486 41.4767 31.8391 41.2924C31.9296 41.1082 32.057 40.9446 32.2135 40.8117C32.656 41.3564 33.1277 41.8768 33.6264 42.3705C33.5064 42.4928 33.3621 42.5887 33.2028 42.652C33.0435 42.7153 32.8727 42.7446 32.7014 42.738H32.676ZM32.3339 37.4092C32.3283 37.3245 32.3408 37.2396 32.3707 37.1602C32.4005 37.0808 32.447 37.0087 32.507 36.9487C32.567 36.8887 32.6391 36.8422 32.7185 36.8124C32.7979 36.7825 32.8828 36.7699 32.9675 36.7755C33.0276 36.7755 33.0872 36.7876 33.1426 36.811C33.198 36.8344 33.2482 36.8686 33.2902 36.9118C33.3321 36.9549 33.365 37.006 33.3868 37.062C33.4087 37.1181 33.419 37.178 33.4174 37.2381C33.4174 37.6119 33.1259 37.9287 32.7077 38.2709C32.4773 38.0422 32.3435 37.7337 32.3339 37.4092Z" fill="white"/>
<path d="M47.4775 44.3217V35.0898H39.9184V44.3217H41.9776V36.8957H45.4182V44.3217H47.4775Z" fill="white"/>
<path d="M55.4991 44.1509C55.2678 43.4539 55.148 42.7246 55.1443 41.9902V40.3238C55.1443 38.0174 54.5107 36.9529 52.1599 36.9529C51.3031 36.9461 50.4498 37.0613 49.6254 37.2951L49.7712 39.272C50.386 38.8254 51.1348 38.6019 51.8938 38.6384C52.8696 38.6384 53.1611 39.1263 53.2434 39.7472C53.1484 39.7472 52.6985 39.7472 52.255 39.7472C50.1323 39.7472 48.9031 40.6533 48.9031 42.2373C48.9031 43.6123 49.6698 44.493 51.2792 44.493C51.6996 44.4697 52.11 44.3564 52.4828 44.1607C52.8555 43.965 53.1819 43.6916 53.4399 43.3589C53.4399 43.5616 53.5856 44.1129 53.6616 44.417L55.4991 44.1509ZM53.2434 41.8318C53.0528 42.1347 52.792 42.3872 52.4832 42.568C52.1745 42.7489 51.8267 42.8528 51.4693 42.871C50.9561 42.871 50.7026 42.6239 50.7026 42.174C50.7026 41.5404 51.2729 41.2869 52.369 41.2869H53.2244L53.2434 41.8318Z" fill="white"/>
<path d="M56.8677 37.0671V47.0277L58.851 46.9327V44.1637C59.3432 44.3668 59.8709 44.4702 60.4034 44.4679C62.545 44.4679 64.034 43.1246 64.034 40.5901C64.034 37.9542 62.7034 36.9341 61.0243 36.9341C60.574 36.9388 60.1305 37.0449 59.7268 37.2445C59.3231 37.4442 58.9696 37.7322 58.6926 38.0873L58.5722 37.0671H56.8677ZM58.851 39.7474C59.0357 39.4531 59.2842 39.204 59.5782 39.0187C59.8721 38.8333 60.2039 38.7164 60.5491 38.6765C61.3285 38.6765 62.0001 39.0757 62.0001 40.6851C62.0001 42.0918 61.3031 42.8078 60.245 42.8078C59.7486 42.8203 59.2608 42.6762 58.851 42.3959V39.7474Z" fill="white"/>
<path d="M69.8444 38.7207C70.3356 38.7053 70.826 38.7717 71.2954 38.9171V37.0669H64.5854V38.9678C65.0195 38.8182 65.4758 38.7432 65.935 38.746H66.9488V44.3472H68.9257V38.7207H69.8444Z" fill="white"/>
<path d="M78.8863 44.3219V37.0669H76.903V39.7725H74.3242V37.0669H72.3282V44.3219H74.3242V41.5086H76.903V44.3219H78.8863Z" fill="white"/>
<path d="M86.3757 42.2945C85.6375 42.6373 84.8325 42.8126 84.0186 42.8077C82.8844 42.8077 82.3015 42.3579 82.2381 41.4771H86.6735C86.7376 41.0573 86.7778 40.6342 86.7939 40.2099C86.7939 38.7335 86.2236 36.9087 83.7842 36.9087C81.4524 36.9087 80.2866 38.5181 80.2866 40.7865C80.2866 43.283 81.3447 44.4552 83.8792 44.4552C84.7438 44.4679 85.6033 44.3197 86.4137 44.018L86.3757 42.2945ZM83.6764 38.4928C84.5825 38.4928 84.8613 39.1771 84.8613 39.9311H82.2635C82.3522 38.968 82.802 38.4674 83.6764 38.4674V38.4928Z" fill="white"/>
<path d="M88.2766 37.0671V47.0277L90.2535 46.9327V44.1637C90.7479 44.3669 91.2776 44.4702 91.8122 44.4679C93.9475 44.4679 95.4365 43.1246 95.4365 40.5901C95.4365 37.9542 94.1059 36.9341 92.4331 36.9341C91.9862 36.9425 91.5467 37.0503 91.1467 37.2498C90.7466 37.4493 90.3961 37.7354 90.1204 38.0873L90.0064 37.0671H88.2766ZM90.2535 39.7474C90.4399 39.4532 90.6897 39.2044 90.9845 39.0191C91.2794 38.8339 91.612 38.7168 91.9579 38.6765C92.7373 38.6765 93.4089 39.0757 93.4089 40.6851C93.4089 42.0918 92.7119 42.8078 91.6538 42.8078C91.1556 42.8191 90.6662 42.6752 90.2535 42.3959V39.7474Z" fill="white"/>
<path d="M96.8242 44.3219H99.46C101.412 44.3219 102.565 43.3588 102.565 41.7874C102.565 40.216 101.69 39.3036 99.6184 39.3036H98.8011V37.0669H96.8242V44.3219ZM98.8011 41.0017H99.5424C100.309 41.0017 100.569 41.3819 100.569 41.8191C100.569 42.2563 100.372 42.7378 99.46 42.7378H98.8264L98.8011 41.0017ZM103.236 44.3219H105.213V37.0669H103.236V44.3219Z" fill="white"/>
<path d="M29.8311 20.5674V29.7993H31.903V22.3035H32.7584C33.7694 22.2876 34.779 22.3853 35.7681 22.595V20.5674H29.8311Z" fill="white"/>
<path d="M104.32 50.8166C104.085 50.8166 103.788 50.7152 103.788 50.4238C103.788 50.1323 103.971 50.0436 104.364 50.0436H104.675V50.7913C104.504 50.7913 104.396 50.7913 104.32 50.7913V50.8166ZM103.686 52.0078L104.193 51.1841H104.694V52.0078H105.175V49.6381H104.301C103.724 49.6381 103.325 49.8662 103.325 50.3921C103.32 50.5361 103.359 50.6783 103.436 50.8002C103.513 50.9222 103.624 51.0183 103.756 51.0764C103.547 51.3742 103.331 51.71 103.122 52.0205L103.686 52.0078ZM99.8339 52.0078L101.038 50.2907L100.993 50.994V52.0078H101.469V49.6698H100.987L99.7958 51.4376L99.8339 50.7469V49.6698H99.3586V52.0269L99.8339 52.0078ZM97.4071 52.0078V49.6761H96.9319V50.6265H95.804V49.6761H95.3225V52.0332H95.804V51.0447H96.9319V52.0332L97.4071 52.0078ZM92.9717 51.2475C92.906 51.3716 92.8088 51.4763 92.6897 51.5508C92.5707 51.6253 92.4341 51.6671 92.2937 51.672C92.2486 51.6747 92.2035 51.6679 92.1612 51.6521C92.1188 51.6363 92.0803 51.6117 92.0481 51.5801C92.0158 51.5484 91.9906 51.5104 91.974 51.4684C91.9574 51.4264 91.9497 51.3813 91.9516 51.3362C91.9516 51.0194 92.2113 50.9053 92.6802 50.9053H92.9717V51.2475ZM93.523 51.9635C93.448 51.6849 93.418 51.3961 93.4342 51.1081V50.6962C93.4342 49.9486 93.2632 49.6064 92.4521 49.6064C92.1919 49.6015 91.9333 49.6489 91.6918 49.7458L91.7361 50.3034C91.8221 50.2087 91.9282 50.1345 92.0466 50.0863C92.1651 50.038 92.2928 50.017 92.4205 50.0246C92.4932 50.015 92.5672 50.0217 92.6371 50.0443C92.7069 50.0668 92.7708 50.1047 92.8242 50.155C92.8776 50.2054 92.9191 50.267 92.9457 50.3354C92.9723 50.4038 92.9834 50.4773 92.978 50.5505H92.6296C91.8122 50.5505 91.4827 50.8546 91.4827 51.3806C91.4786 51.4756 91.495 51.5705 91.5307 51.6587C91.5664 51.7469 91.6206 51.8264 91.6897 51.8919C91.7588 51.9573 91.8411 52.0072 91.9311 52.0381C92.0211 52.0691 92.1166 52.0804 92.2114 52.0712C92.3656 52.0673 92.517 52.0295 92.655 51.9605C92.7929 51.8915 92.9141 51.793 93.0097 51.672C93.0237 51.7936 93.0449 51.9141 93.0731 52.0332L93.523 51.9635ZM89.7212 52.0078V49.6761H87.6809V52.0332H88.1625V50.0943H89.2397V52.0332L89.7212 52.0078ZM84.4748 52.0078L85.1084 50.6519L85.2985 50.202V50.7659L85.3429 51.9825H85.7991L85.6723 49.6254H85.1401L84.3734 51.2602H84.3417L83.5814 49.6254H83.0555L82.9161 51.9825H83.3723L83.4166 50.7659V50.1957L83.6004 50.6202L84.234 52.0078H84.4748ZM79.4058 50.7976C79.4058 50.3161 79.6719 49.9549 80.0901 49.9549C80.5083 49.9549 80.7237 50.2844 80.7237 50.804C80.7237 51.3235 80.4956 51.6657 80.0521 51.6657C79.6086 51.6657 79.3995 51.3742 79.3995 50.8483L79.4058 50.7976ZM78.9243 50.7976C78.903 50.9588 78.9171 51.1227 78.9656 51.2779C79.014 51.4331 79.0955 51.5759 79.2046 51.6964C79.3137 51.817 79.4477 51.9124 79.5973 51.976C79.747 52.0396 79.9086 52.0699 80.0711 52.0649C80.2326 52.0646 80.3923 52.0308 80.54 51.9656C80.6877 51.9004 80.8203 51.8052 80.9293 51.686C81.0383 51.5669 81.1214 51.4264 81.1733 51.2735C81.2252 51.1205 81.2447 50.9585 81.2306 50.7976C81.2306 50.1006 80.8948 49.5304 80.1028 49.5304C79.9344 49.5282 79.7676 49.5621 79.6134 49.6298C79.4592 49.6975 79.3214 49.7975 79.2091 49.923C79.0968 50.0484 79.0127 50.1965 78.9625 50.3572C78.9123 50.518 78.8971 50.6876 78.9179 50.8546L78.9243 50.7976ZM77.0234 51.9762H77.657L76.5925 50.7469L77.5493 49.6191H76.9157L76.3391 50.3731C76.2123 50.5378 76.1173 50.6139 76.0539 50.6139H75.9716V49.6761H75.547V52.0332H76.0286V50.9877H76.1236C76.1807 50.9877 76.3137 51.1208 76.4341 51.2665L77.0234 51.9762ZM69.9711 50.7596C69.7367 50.7596 69.4389 50.6582 69.4389 50.3668C69.4389 50.0753 69.629 49.9866 70.0155 49.9866H70.3323V50.7343C70.1676 50.8166 70.0535 50.8166 69.9775 50.8166L69.9711 50.7596ZM69.3375 51.9762L69.8381 51.1525H70.3577V51.9762H70.8329V49.6381H69.9585C69.3882 49.6381 68.989 49.8662 68.989 50.3921C68.9847 50.5353 69.0227 50.6765 69.0982 50.7982C69.1737 50.9199 69.2834 51.0167 69.4136 51.0764C69.2108 51.3742 68.989 51.71 68.7799 52.0205L69.3375 51.9762ZM66.6763 51.2728C66.6096 51.3962 66.5121 51.5001 66.3933 51.5745C66.2745 51.6489 66.1384 51.6912 65.9983 51.6974C65.9527 51.701 65.9068 51.6949 65.8638 51.6795C65.8207 51.6641 65.7814 51.6397 65.7485 51.6079C65.7155 51.5762 65.6897 51.5378 65.6727 51.4953C65.6557 51.4529 65.6479 51.4073 65.6498 51.3615C65.6498 51.0447 65.9096 50.9307 66.3848 50.9307H66.6763V51.2728ZM67.2212 51.9888C67.1462 51.7103 67.1163 51.4215 67.1325 51.1334V50.7216C67.1325 49.9739 66.9678 49.6318 66.1504 49.6318C65.8902 49.6279 65.6319 49.6753 65.39 49.7711L65.4344 50.3287C65.5204 50.2341 65.6265 50.1599 65.7449 50.1116C65.8633 50.0634 65.9911 50.0423 66.1187 50.0499C66.1917 50.0391 66.2662 50.045 66.3366 50.0671C66.407 50.0892 66.4714 50.127 66.5251 50.1776C66.5788 50.2282 66.6203 50.2904 66.6464 50.3594C66.6726 50.4283 66.6828 50.5024 66.6763 50.5759H66.3341C65.5104 50.5759 65.1873 50.88 65.1873 51.4059C65.1774 51.5024 65.1898 51.5999 65.2235 51.6908C65.2572 51.7818 65.3113 51.8638 65.3817 51.9305C65.4521 51.9972 65.5369 52.0469 65.6295 52.0757C65.7221 52.1045 65.8201 52.1116 65.9159 52.0965C66.0698 52.0909 66.2207 52.0524 66.3584 51.9835C66.4961 51.9147 66.6175 51.8171 66.7143 51.6974C66.7143 51.7924 66.7143 51.9381 66.7713 52.0585L67.2212 51.9888ZM63.2104 52.0332H63.844L62.7795 50.804L63.7363 49.6761H63.1407L62.5641 50.4301C62.431 50.5949 62.3423 50.6709 62.2726 50.6709H62.1902V49.6761H61.715V52.0332H62.1902V50.9877H62.2853C62.3486 50.9877 62.4754 51.1208 62.5958 51.2665L63.2104 52.0332ZM60.0422 51.4629C59.8372 51.6082 59.59 51.6817 59.3389 51.672C59.2383 51.6729 59.1385 51.6536 59.0455 51.6153C58.9524 51.577 58.868 51.5204 58.7971 51.449C58.7262 51.3775 58.6704 51.2926 58.6329 51.1993C58.5953 51.1059 58.5769 51.006 58.5786 50.9053C58.5786 50.3984 58.8384 50.0816 59.3009 50.0816C59.422 50.0812 59.5416 50.1077 59.6512 50.1593C59.7608 50.2108 59.8576 50.286 59.9345 50.3794L59.9916 49.7902C59.7808 49.6997 59.5554 49.6482 59.3263 49.6381C59.1579 49.6238 58.9885 49.6472 58.8303 49.7064C58.6721 49.7656 58.529 49.8592 58.4114 49.9804C58.2937 50.1017 58.2045 50.2476 58.1502 50.4075C58.0958 50.5675 58.0776 50.7375 58.097 50.9053C58.077 51.0682 58.094 51.2336 58.1469 51.389C58.1997 51.5443 58.2869 51.6858 58.402 51.8028C58.5172 51.9197 58.6573 52.0092 58.8118 52.0644C58.9663 52.1197 59.1314 52.1393 59.2946 52.1219C59.5502 52.1174 59.8024 52.0614 60.0359 51.9572L60.0422 51.4629ZM55.5308 49.9802C55.9237 49.9802 56.0758 50.2717 56.0758 50.6139H54.9099C54.9542 50.2084 55.138 49.9802 55.5118 49.9802H55.5308ZM56.4306 51.4693C56.1955 51.6203 55.917 51.6893 55.6386 51.6657C55.5492 51.6765 55.4586 51.6681 55.3727 51.6412C55.2868 51.6142 55.2076 51.5692 55.1405 51.5093C55.0734 51.4493 55.0198 51.3758 54.9833 51.2935C54.9468 51.2112 54.9282 51.1221 54.9289 51.0321H56.5193C56.5272 50.9012 56.5272 50.77 56.5193 50.6392C56.5323 50.5083 56.5168 50.3762 56.4739 50.2518C56.4311 50.1275 56.3618 50.0139 56.271 49.9188C56.1801 49.8237 56.0697 49.7494 55.9474 49.7009C55.8252 49.6525 55.6939 49.6311 55.5625 49.6381C54.7768 49.6381 54.4283 50.164 54.4283 50.9053C54.4283 51.7417 54.8022 52.1219 55.5942 52.1219C55.8735 52.1261 56.151 52.0767 56.4116 51.9762L56.4306 51.4693ZM52.7049 52.0332V49.6761H52.2233V50.7152C52.0636 50.8285 51.8741 50.8924 51.6784 50.899C51.3743 50.899 51.1715 50.8103 51.1715 50.3034V49.6698H50.69V50.3794C50.69 51.0637 51.0321 51.3362 51.5263 51.3362C51.77 51.3376 52.01 51.2765 52.2233 51.1588V52.0269L52.7049 52.0332ZM47.3444 52.0332L48.5483 50.3161L48.5039 51.0194V52.0332H48.9348V49.6698H48.4533L47.2874 51.4376L47.3254 50.7469V49.6698H46.8439V52.0269L47.3444 52.0332ZM44.3284 51.653H43.3082C43.405 51.4949 43.4736 51.3213 43.511 51.1398C43.5861 50.7938 43.6306 50.4418 43.6441 50.088H44.2777L44.3284 51.653ZM45.1014 52.7238L45.1964 51.653H44.8036V49.6761H43.2322C43.2322 49.7585 43.2322 49.9422 43.2322 50.088C43.2531 50.629 43.133 51.1661 42.8837 51.6467H42.4845L42.5986 52.7175H42.9344L42.9724 52.0839H44.7275L44.7719 52.7175L45.1014 52.7238ZM39.3607 52.0332L40.5583 50.3161L40.5139 51.0194V52.0332H40.9892V49.6698H40.5139L39.3164 51.4376L39.3607 50.7469V49.6698H38.8602V52.0269L39.3607 52.0332ZM36.0406 50.0563C36.3194 50.0563 36.6362 50.259 36.6362 50.8673C36.6362 51.4756 36.3447 51.6974 35.9328 51.6974C35.709 51.7076 35.4875 51.6478 35.2992 51.5263V50.5378C35.3669 50.4008 35.4691 50.2838 35.5958 50.1983C35.7224 50.1127 35.8692 50.0616 36.0215 50.0499L36.0406 50.0563ZM34.8367 49.6824V52.9836H35.3182V51.9572C35.529 52.0516 35.7591 52.095 35.9899 52.0839C36.1512 52.0859 36.3112 52.0535 36.459 51.9887C36.6068 51.924 36.7391 51.8285 36.8471 51.7085C36.955 51.5886 37.0362 51.447 37.085 51.2932C37.1339 51.1394 37.1493 50.9769 37.1304 50.8166C37.1304 49.9612 36.6235 49.6254 36.1356 49.6254C35.9699 49.6151 35.8046 49.6519 35.6588 49.7315C35.5131 49.8111 35.3928 49.9303 35.3119 50.0753L35.2612 49.6761L34.8367 49.6824ZM31.3201 50.8546C31.3201 50.3731 31.5545 50.0119 31.9537 50.0119C32.3529 50.0119 32.5873 50.3414 32.5873 50.861C32.5873 51.3806 32.3909 51.7227 31.9537 51.7227C31.5165 51.7227 31.301 51.3742 31.301 50.8483L31.3201 50.8546ZM29.8564 52.0395H30.3379V51.0574H30.8575C30.8538 51.2009 30.8798 51.3437 30.934 51.4766C30.9882 51.6095 31.0694 51.7298 31.1724 51.8298C31.2754 51.9298 31.398 52.0074 31.5324 52.0577C31.6669 52.108 31.8103 52.1298 31.9537 52.1219C32.1144 52.1219 32.2734 52.0881 32.4203 52.0227C32.5671 51.9573 32.6986 51.8617 32.8061 51.7422C32.9137 51.6227 32.9949 51.482 33.0445 51.3291C33.0942 51.1762 33.1111 51.0145 33.0942 50.8546C33.0942 50.1577 32.7774 49.5874 31.9854 49.5874C31.7036 49.5785 31.4294 49.6792 31.2202 49.8682C31.0111 50.0573 30.8834 50.32 30.8638 50.6012H30.3379V49.6761H29.8564V52.0395Z" fill="white"/>
</svg>
