<svg width="193" height="106" viewBox="0 0 193 106" fill="none" xmlns="http://www.w3.org/2000/svg">
<path fill-rule="evenodd" clip-rule="evenodd" d="M193 0H155.67V9.4027H183.597V95.73H9.4027V9.4027H101.718V0H0V105.133H193V0Z" fill="#1A2852"/>
<path d="M60.9002 42.3575C60.5654 41.3588 60.3941 40.3127 60.3929 39.2595V36.8862C60.3929 33.5889 59.487 32.058 56.1354 32.058C54.9105 32.0473 53.6903 32.212 52.512 32.5471L52.7204 35.3824C53.5993 34.744 54.6698 34.4245 55.7549 34.4766C57.15 34.4766 57.5666 35.1741 57.6753 36.0618C57.5485 36.0618 56.9054 36.0618 56.2622 36.0618C53.2276 36.0618 51.4793 37.3572 51.4793 39.6218C51.4793 41.5784 52.5664 42.8466 54.8672 42.8466C55.469 42.8111 56.0563 42.6481 56.5904 42.3686C57.1244 42.0891 57.593 41.6993 57.9652 41.2252C57.9652 41.506 58.1736 42.3031 58.2823 42.7289L60.9002 42.3575ZM57.6753 39.033C57.4047 39.4664 57.0338 39.8284 56.594 40.0886C56.1541 40.3487 55.6582 40.4993 55.148 40.5277C54.4052 40.5277 54.0519 40.1653 54.0519 39.5312C54.0519 38.6254 54.8582 38.263 56.4253 38.263H57.6572L57.6753 39.033Z" fill="white"/>
<path d="M62.7571 42.5658C63.3006 42.5658 65.2844 42.7107 66.924 42.7107C70.3572 42.7107 71.4533 41.1708 71.4533 39.5674C71.5026 39.0035 71.3464 38.4407 71.0135 37.9829C70.6805 37.5251 70.1933 37.2031 69.6416 37.0763C70.0755 36.877 70.441 36.5541 70.6924 36.1481C70.9437 35.742 71.0698 35.2709 71.0547 34.7936C71.0547 33.1902 69.9405 32.076 67.0146 32.076C64.4873 32.076 62.7209 32.2119 62.7209 32.2119L62.7571 42.5658ZM65.4294 38.3536C65.8823 38.3536 66.2446 38.3536 66.7881 38.3536C68.2013 38.3536 68.5998 38.7522 68.5998 39.3591C68.5998 39.966 68.002 40.5276 66.6976 40.5276C66.2731 40.5098 65.8498 40.4705 65.4294 40.4099V38.3536ZM65.4294 36.3607V34.3588C65.9638 34.3588 66.1631 34.2863 66.7338 34.2863C67.9023 34.2863 68.2375 34.703 68.2375 35.2737C68.2375 35.8444 67.8117 36.3607 66.6794 36.3607H65.4294Z" fill="white"/>
<path d="M73.4824 32.2301V46.5063L76.2996 46.3341V42.3756C77.0033 42.6659 77.7576 42.8137 78.5189 42.8104C81.5807 42.8104 83.7094 40.8809 83.7094 37.2666C83.7094 33.4892 81.8071 32.0399 79.4066 32.0399C78.7636 32.0455 78.13 32.1958 77.5529 32.4796C76.9759 32.7634 76.4701 33.1735 76.0731 33.6794L75.901 32.2301H73.4824ZM76.2996 36.0618C76.5637 35.6411 76.919 35.2851 77.3392 35.0201C77.7594 34.7551 78.2338 34.5879 78.7273 34.5309C79.8414 34.5309 80.8016 35.0926 80.8016 37.3934C80.8016 39.4135 79.8052 40.428 78.2924 40.428C77.5846 40.4426 76.8891 40.2403 76.2996 39.8483V36.0618Z" fill="white"/>
<path d="M85.7023 42.6021H88.5285V38.6254H89.8873C90.2497 41.2252 91.699 42.9554 94.7336 42.9554C98.0037 42.9554 99.8064 40.4552 99.8064 37.4116C99.8064 34.3679 98.3932 31.9765 94.8514 31.9765C93.6618 31.9085 92.4903 32.2911 91.5703 33.0483C90.6503 33.8054 90.0494 34.8814 89.8873 36.0619H88.5285V32.2301H85.7023V42.6021ZM92.6049 37.3935C92.6049 35.5818 93.3839 34.3589 94.797 34.3589C96.2101 34.3589 96.8623 35.4549 96.8623 37.4478C96.8623 39.4407 96.183 40.582 94.6883 40.582C93.3567 40.5458 92.6049 39.486 92.6049 37.3935Z" fill="white"/>
<path d="M107.252 32.23V40.129H104.571V32.23H101.745V42.5929H115.586V32.23H112.76V40.129H110.079V32.23H107.252Z" fill="white"/>
<path d="M124.31 42.602H127.815L123.476 37.167L127.362 32.1938H124.029L121.782 35.473C121.465 35.9259 121.221 36.2068 121.03 36.2068H120.913V32.2301H118.086V42.602H120.913V38.3536H121.03C121.239 38.3536 121.384 38.5529 121.764 39.0692L124.31 42.602Z" fill="white"/>
<path d="M131.611 42.5929L135.759 36.6053H135.841L135.669 38.0546V42.5929H138.477V32.23H135.841L131.747 38.4079H131.674L131.819 36.9767V32.23H128.993V42.5929H131.611Z" fill="white"/>
<path d="M150.38 42.5929V32.23H147.545V36.089H143.849V32.23H141.004V42.5929H143.849V38.58H147.545V42.5929H150.38Z" fill="white"/>
<path d="M54.5592 63.3641C53.6534 62.4583 52.2402 61.1267 51.425 60.2933C52.0857 58.9147 52.482 57.4245 52.5935 55.8999H50.03C49.9471 56.7069 49.7894 57.5045 49.5589 58.2823C48.8071 57.4942 48.5444 57.2134 48.1458 56.7152C49.3144 55.8093 50.3923 54.6046 50.3923 53.0465C50.3981 52.6399 50.3179 52.2367 50.1572 51.8632C49.9964 51.4897 49.7587 51.1543 49.4594 50.879C49.1602 50.6037 48.8062 50.3947 48.4206 50.2655C48.035 50.1364 47.6265 50.0901 47.2219 50.1297C46.7601 50.088 46.2946 50.1433 45.8555 50.2922C45.4164 50.4411 45.0132 50.6801 44.672 50.9941C44.3308 51.308 44.059 51.6899 43.8741 52.1151C43.6892 52.5403 43.5953 52.9995 43.5985 53.4632C43.6173 54.4963 43.9665 55.4963 44.5949 56.3166C43.9998 56.7404 43.511 57.2962 43.1668 57.9406C42.8226 58.585 42.6324 59.3004 42.6111 60.0306C42.6111 62.3314 44.3684 63.4819 46.6512 63.4819C47.8084 63.4819 48.926 63.06 49.7945 62.2952L50.8724 63.3641H54.5592ZM46.7146 61.0995C46.54 61.1196 46.3632 61.1033 46.1953 61.0515C46.0274 60.9997 45.8721 60.9136 45.7392 60.7986C45.6064 60.6837 45.4988 60.5423 45.4235 60.3836C45.3481 60.2249 45.3066 60.0522 45.3015 59.8766C45.315 59.5835 45.3887 59.2963 45.5181 59.0329C45.6474 58.7696 45.8296 58.5356 46.0533 58.3457C46.6859 59.1244 47.3603 59.8683 48.0733 60.5741C47.9017 60.7491 47.6954 60.8862 47.4676 60.9767C47.2399 61.0671 46.9957 61.109 46.7508 61.0995H46.7146ZM46.2254 53.4813C46.2174 53.3603 46.2354 53.2389 46.278 53.1254C46.3207 53.0119 46.3872 52.9088 46.473 52.823C46.5587 52.7372 46.6618 52.6708 46.7754 52.6281C46.8889 52.5854 47.0102 52.5675 47.1313 52.5755C47.2173 52.5754 47.3024 52.5926 47.3816 52.6261C47.4609 52.6595 47.5326 52.7085 47.5926 52.7702C47.6525 52.8319 47.6995 52.9049 47.7308 52.985C47.762 53.0652 47.7768 53.1508 47.7744 53.2367C47.7744 53.7712 47.3577 54.2241 46.7599 54.7133C46.4305 54.3862 46.2392 53.9453 46.2254 53.4813Z" fill="white"/>
<path d="M67.8752 63.364V50.1658H57.0685V63.364H60.0125V52.7475H64.9312V63.364H67.8752Z" fill="white"/>
<path d="M79.3432 63.1195C79.0125 62.123 78.8413 61.0805 78.836 60.0306V57.6482C78.836 54.3509 77.9301 52.8291 74.5694 52.8291C73.3445 52.8194 72.1245 52.9841 70.946 53.3182L71.1544 56.1445C72.0334 55.506 73.1038 55.1865 74.189 55.2386C75.584 55.2386 76.0007 55.9361 76.1184 56.8239C75.9825 56.8239 75.3394 56.8239 74.7053 56.8239C71.6707 56.8239 69.9134 58.1192 69.9134 60.3839C69.9134 62.3495 71.0094 63.6087 73.3103 63.6087C73.9112 63.5753 74.498 63.4133 75.0309 63.1336C75.5639 62.8538 76.0305 62.4629 76.3992 61.9872C76.3992 62.2771 76.6076 63.0652 76.7163 63.5L79.3432 63.1195ZM76.1184 59.8041C75.8458 60.237 75.4731 60.598 75.0316 60.8566C74.5902 61.1152 74.093 61.2637 73.582 61.2897C72.8483 61.2897 72.486 60.9364 72.486 60.2933C72.486 59.3874 73.3012 59.0251 74.8684 59.0251H76.0912L76.1184 59.8041Z" fill="white"/>
<path d="M81.2998 52.9921V67.232L84.1351 67.0962V63.1376C84.8389 63.428 85.5932 63.5758 86.3545 63.5724C89.4162 63.5724 91.545 61.652 91.545 58.0286C91.545 54.2603 89.6427 52.8019 87.2422 52.8019C86.5984 52.8086 85.9644 52.9603 85.3873 53.2457C84.8101 53.5311 84.3048 53.9429 83.9087 54.4505L83.7366 52.9921H81.2998ZM84.1351 56.8238C84.3993 56.4031 84.7545 56.0471 85.1747 55.7821C85.5949 55.5171 86.0693 55.35 86.5628 55.293C87.677 55.293 88.6372 55.8636 88.6372 58.1645C88.6372 60.1755 87.6408 61.1991 86.128 61.1991C85.4184 61.217 84.7211 61.011 84.1351 60.6103V56.8238Z" fill="white"/>
<path d="M99.8517 55.3564C100.554 55.3344 101.255 55.4293 101.926 55.6372V52.9921H92.3331V55.7097C92.9538 55.4958 93.6062 55.3887 94.2626 55.3926H95.7119V63.4003H98.5382V55.3564H99.8517Z" fill="white"/>
<path d="M112.778 63.3641V52.9921H109.943V56.8601H106.256V52.9921H103.403V63.3641H106.256V59.3421H109.943V63.3641H112.778Z" fill="white"/>
<path d="M123.485 60.4653C122.43 60.9554 121.279 61.206 120.115 61.1991C118.494 61.1991 117.661 60.5559 117.57 59.2968H123.911C124.003 58.6966 124.06 58.0918 124.083 57.4851C124.083 55.3745 123.268 52.7656 119.78 52.7656C116.447 52.7656 114.78 55.0665 114.78 58.3094C114.78 61.8785 116.293 63.5543 119.916 63.5543C121.152 63.5725 122.381 63.3606 123.54 62.9292L123.485 60.4653ZM119.626 55.0302C120.922 55.0302 121.32 56.0086 121.32 57.0865H117.606C117.733 55.7096 118.376 54.994 119.626 54.994V55.0302Z" fill="white"/>
<path d="M126.203 52.9921V67.232L129.029 67.0962V63.1376C129.736 63.428 130.493 63.5758 131.257 63.5724C134.31 63.5724 136.439 61.652 136.439 58.0286C136.439 54.2603 134.537 52.8019 132.145 52.8019C131.506 52.8139 130.878 52.9681 130.306 53.2533C129.734 53.5384 129.233 53.9474 128.839 54.4505L128.676 52.9921H126.203ZM129.029 56.8238C129.296 56.4033 129.653 56.0476 130.074 55.7828C130.496 55.5179 130.971 55.3506 131.466 55.293C132.58 55.293 133.54 55.8636 133.54 58.1645C133.54 60.1755 132.544 61.1991 131.031 61.1991C130.319 61.2153 129.619 61.0095 129.029 60.6103V56.8238Z" fill="white"/>
<path d="M138.423 63.3641H142.191C144.981 63.3641 146.63 61.9872 146.63 59.7407C146.63 57.4942 145.38 56.1898 142.417 56.1898H141.249V52.9921H138.423V63.3641ZM141.249 58.6174H142.309C143.405 58.6174 143.776 59.161 143.776 59.786C143.776 60.411 143.495 61.0995 142.191 61.0995H141.285L141.249 58.6174ZM147.59 63.3641H150.416V52.9921H147.59V63.3641Z" fill="white"/>
<path d="M42.6473 29.4038V42.602H45.6095V31.8858H46.8324C48.2777 31.863 49.721 32.0028 51.1351 32.3025V29.4038H42.6473Z" fill="white"/>
<path d="M149.139 72.6491C148.804 72.6491 148.378 72.5041 148.378 72.0874C148.378 71.6708 148.641 71.5439 149.202 71.5439H149.646V72.6128C149.402 72.6128 149.248 72.6128 149.139 72.6128V72.6491ZM148.233 74.3521L148.958 73.1745H149.673V74.3521H150.362V70.9642H149.112C148.287 70.9642 147.717 71.2903 147.717 72.0422C147.71 72.2481 147.765 72.4513 147.875 72.6256C147.985 72.7999 148.144 72.9374 148.333 73.0205C148.034 73.4462 147.726 73.9263 147.427 74.3702L148.233 74.3521ZM142.725 74.3521L144.447 71.8972L144.383 72.9027V74.3521H145.063V71.0095H144.374L142.671 73.5368L142.725 72.5494V71.0095H142.046V74.3792L142.725 74.3521ZM139.256 74.3521V71.0185H138.577V72.3773H136.964V71.0185H136.276V74.3883H136.964V72.9752H138.577V74.3883L139.256 74.3521ZM132.915 73.265C132.821 73.4425 132.682 73.5921 132.512 73.6987C132.342 73.8052 132.146 73.865 131.946 73.872C131.881 73.8758 131.817 73.8661 131.756 73.8435C131.696 73.8208 131.641 73.7858 131.595 73.7405C131.549 73.6953 131.512 73.6409 131.489 73.5808C131.465 73.5208 131.454 73.4564 131.457 73.3919C131.457 72.9389 131.828 72.7759 132.498 72.7759H132.915V73.265ZM133.703 74.2887C133.596 73.8904 133.553 73.4775 133.576 73.0658V72.477C133.576 71.4081 133.332 70.9189 132.172 70.9189C131.8 70.9119 131.431 70.9797 131.085 71.1182L131.149 71.9153C131.272 71.78 131.423 71.6739 131.593 71.605C131.762 71.536 131.945 71.5058 132.127 71.5168C132.231 71.503 132.337 71.5126 132.437 71.5449C132.537 71.5772 132.628 71.6312 132.704 71.7032C132.781 71.7752 132.84 71.8633 132.878 71.9611C132.916 72.0589 132.932 72.164 132.924 72.2686H132.426C131.257 72.2686 130.786 72.7034 130.786 73.4553C130.781 73.5912 130.804 73.7268 130.855 73.8529C130.906 73.979 130.984 74.0927 131.082 74.1862C131.181 74.2798 131.299 74.3511 131.427 74.3954C131.556 74.4396 131.693 74.4557 131.828 74.4426C132.049 74.437 132.265 74.383 132.462 74.2844C132.66 74.1858 132.833 74.045 132.969 73.872C132.989 74.0457 133.02 74.2181 133.06 74.3883L133.703 74.2887ZM128.268 74.3521V71.0185H125.351V74.3883H126.04V71.6164H127.58V74.3883L128.268 74.3521ZM120.768 74.3521L121.674 72.4136L121.945 71.7704V72.5766L122.009 74.3158H122.661L122.48 70.9461H121.719L120.623 73.2832H120.577L119.49 70.9461H118.739L118.539 74.3158H119.191L119.255 72.5766V71.7613L119.518 72.3683L120.423 74.3521H120.768ZM113.521 72.6219C113.521 71.9335 113.901 71.4171 114.499 71.4171C115.097 71.4171 115.405 71.8882 115.405 72.631C115.405 73.3737 115.079 73.8629 114.445 73.8629C113.811 73.8629 113.512 73.4462 113.512 72.6944L113.521 72.6219ZM112.832 72.6219C112.802 72.8523 112.822 73.0866 112.891 73.3085C112.961 73.5304 113.077 73.7346 113.233 73.9069C113.389 74.0792 113.581 74.2156 113.795 74.3065C114.009 74.3975 114.24 74.4408 114.472 74.4336C114.703 74.4332 114.931 74.3849 115.142 74.2916C115.354 74.1984 115.543 74.0623 115.699 73.892C115.855 73.7217 115.974 73.5208 116.048 73.3022C116.122 73.0835 116.15 72.8519 116.13 72.6219C116.13 71.6255 115.65 70.8102 114.517 70.8102C114.277 70.8071 114.038 70.8555 113.818 70.9523C113.597 71.0492 113.4 71.1921 113.24 71.3715C113.079 71.5509 112.959 71.7626 112.887 71.9923C112.815 72.2221 112.794 72.4646 112.823 72.7034L112.832 72.6219ZM110.115 74.3068H111.021L109.499 72.5494L110.867 70.937H109.961L109.137 72.015C108.955 72.2505 108.82 72.3592 108.729 72.3592H108.611V71.0185H108.004V74.3883H108.693V72.8936H108.829C108.91 72.8936 109.1 73.0839 109.272 73.2922L110.115 74.3068ZM100.033 72.5675C99.6976 72.5675 99.2719 72.4226 99.2719 72.0059C99.2719 71.5892 99.5436 71.4624 100.096 71.4624H100.549V72.5313C100.314 72.6491 100.151 72.6491 100.042 72.6491L100.033 72.5675ZM99.127 74.3068L99.8426 73.1292H100.585V74.3068H101.265V70.9642H100.015C99.1994 70.9642 98.6287 71.2903 98.6287 72.0422C98.6226 72.2468 98.6768 72.4488 98.7848 72.6228C98.8927 72.7968 99.0495 72.9351 99.2357 73.0205C98.9458 73.4462 98.6287 73.9263 98.3298 74.3702L99.127 74.3068ZM95.3224 73.3013C95.2271 73.4776 95.0877 73.6262 94.9178 73.7325C94.7479 73.8389 94.5534 73.8994 94.3531 73.9082C94.2879 73.9134 94.2224 73.9047 94.1608 73.8826C94.0992 73.8606 94.043 73.8257 93.9959 73.7803C93.9488 73.735 93.9119 73.6801 93.8876 73.6194C93.8633 73.5586 93.8521 73.4935 93.8549 73.4281C93.8549 72.9752 94.2263 72.8121 94.9057 72.8121H95.3224V73.3013ZM96.1014 74.3249C95.9942 73.9266 95.9514 73.5138 95.9746 73.102V72.5132C95.9746 71.4443 95.7391 70.9551 94.5705 70.9551C94.1986 70.9496 93.8293 71.0173 93.4835 71.1544L93.5469 71.9516C93.6698 71.8162 93.8215 71.7102 93.9908 71.6412C94.1601 71.5722 94.3428 71.5421 94.5252 71.553C94.6296 71.5375 94.7361 71.5459 94.8367 71.5775C94.9373 71.6091 95.0295 71.6632 95.1062 71.7355C95.183 71.8079 95.2423 71.8967 95.2797 71.9954C95.3172 72.094 95.3318 72.1998 95.3224 72.3049H94.8332C93.6556 72.3049 93.1936 72.7397 93.1936 73.4915C93.1795 73.6295 93.1972 73.7688 93.2454 73.8988C93.2936 74.0289 93.371 74.1461 93.4716 74.2415C93.5723 74.3369 93.6935 74.4079 93.8259 74.449C93.9583 74.4902 94.0984 74.5004 94.2354 74.4789C94.4554 74.4709 94.6711 74.4158 94.868 74.3173C95.0648 74.2189 95.2383 74.0794 95.3767 73.9082C95.3767 74.0441 95.3767 74.2524 95.4583 74.4245L96.1014 74.3249ZM90.3674 74.3883H91.2733L89.7514 72.631L91.1193 71.0185H90.2678L89.4434 72.0965C89.2532 72.332 89.1264 72.4407 89.0268 72.4407H88.909V71.0185H88.2296V74.3883H88.909V72.8936H89.0449C89.1354 72.8936 89.3166 73.0839 89.4887 73.2922L90.3674 74.3883ZM85.8382 73.573C85.5451 73.7807 85.1916 73.8858 84.8327 73.872C84.6888 73.8732 84.5462 73.8456 84.4131 73.7909C84.2801 73.7361 84.1594 73.6553 84.0581 73.5531C83.9568 73.451 83.8769 73.3296 83.8233 73.1961C83.7696 73.0626 83.7432 72.9197 83.7457 72.7759C83.7457 72.0512 84.1171 71.5983 84.7783 71.5983C84.9514 71.5977 85.1225 71.6356 85.2791 71.7093C85.4358 71.7829 85.5741 71.8904 85.6842 72.024L85.7657 71.1816C85.4644 71.0523 85.1421 70.9787 84.8146 70.9642C84.5739 70.9438 84.3317 70.9772 84.1055 71.0618C83.8793 71.1464 83.6748 71.2803 83.5066 71.4536C83.3384 71.627 83.2109 71.8355 83.1332 72.0642C83.0555 72.2929 83.0295 72.536 83.0572 72.7759C83.0286 73.0088 83.053 73.2451 83.1285 73.4673C83.204 73.6894 83.3287 73.8917 83.4933 74.0589C83.6579 74.2261 83.8581 74.354 84.0791 74.433C84.3 74.512 84.5359 74.5401 84.7693 74.5151C85.1348 74.5087 85.4953 74.4286 85.8291 74.2796L85.8382 73.573ZM79.3885 71.4534C79.9502 71.4534 80.1676 71.87 80.1676 72.3592H78.5008C78.5642 71.7795 78.8269 71.4534 79.3613 71.4534H79.3885ZM80.6748 73.5821C80.3387 73.798 79.9406 73.8967 79.5425 73.8629C79.4148 73.8784 79.2852 73.8664 79.1624 73.8278C79.0396 73.7893 78.9265 73.725 78.8305 73.6393C78.7345 73.5536 78.6579 73.4484 78.6057 73.3308C78.5535 73.2131 78.527 73.0857 78.528 72.9571H80.8017C80.813 72.77 80.813 72.5825 80.8017 72.3954C80.8202 72.2083 80.7981 72.0194 80.7368 71.8416C80.6755 71.6639 80.5765 71.5014 80.4466 71.3655C80.3167 71.2296 80.1589 71.1233 79.9841 71.0541C79.8093 70.9848 79.6216 70.9541 79.4338 70.9642C78.3106 70.9642 77.8123 71.716 77.8123 72.7759C77.8123 73.9716 78.3468 74.5151 79.4791 74.5151C79.8784 74.5212 80.2751 74.4505 80.6477 74.3068L80.6748 73.5821ZM75.3484 74.3883V71.0185H74.66V72.5041C74.4316 72.666 74.1608 72.7573 73.881 72.7668C73.4462 72.7668 73.1563 72.64 73.1563 71.9153V71.0095H72.4678V72.024C72.4678 73.0024 72.957 73.3919 73.6636 73.3919C74.0119 73.3939 74.355 73.3065 74.66 73.1382V74.3792L75.3484 74.3883ZM67.685 74.3883L69.4061 71.9335L69.3427 72.9389V74.3883H69.9586V71.0095H69.2702L67.6034 73.5368L67.6578 72.5494V71.0095H66.9693V74.3792L67.685 74.3883ZM63.3731 73.8448H61.9147C62.053 73.6188 62.1511 73.3706 62.2046 73.1111C62.312 72.6164 62.3756 72.1132 62.3948 71.6073H63.3007L63.3731 73.8448ZM64.4783 75.3757L64.6141 73.8448H64.0525V71.0185H61.806C61.806 71.1363 61.806 71.399 61.806 71.6073C61.8359 72.3808 61.6642 73.1487 61.3078 73.8357H60.7371L60.9002 75.3666H61.3803L61.4346 74.4608H63.9438L64.0072 75.3666L64.4783 75.3757ZM56.2713 74.3883L57.9833 71.9335L57.9199 72.9389V74.3883H58.5993V71.0095H57.9199L56.2079 73.5368L56.2713 72.5494V71.0095H55.5557V74.3792L56.2713 74.3883ZM51.5246 71.5621C51.9232 71.5621 52.3761 71.8519 52.3761 72.7215C52.3761 73.5912 51.9594 73.9082 51.3706 73.9082C51.0506 73.9229 50.734 73.8374 50.4648 73.6636V72.2505C50.5616 72.0546 50.7077 71.8873 50.8888 71.765C51.0698 71.6427 51.2796 71.5697 51.4975 71.553L51.5246 71.5621ZM49.8035 71.0276V75.7471H50.492V74.2796C50.7934 74.4146 51.1223 74.4767 51.4522 74.4608C51.6829 74.4637 51.9115 74.4173 52.1228 74.3247C52.3342 74.2322 52.5233 74.0956 52.6777 73.9241C52.832 73.7526 52.948 73.5502 53.0178 73.3303C53.0877 73.1104 53.1098 72.8782 53.0827 72.6491C53.0827 71.4262 52.358 70.9461 51.6605 70.9461C51.4236 70.9314 51.1873 70.9839 50.9789 71.0977C50.7705 71.2115 50.5986 71.3819 50.4829 71.5892L50.4104 71.0185L49.8035 71.0276ZM44.7761 72.7034C44.7761 72.015 45.1112 71.4986 45.6819 71.4986C46.2526 71.4986 46.5878 71.9697 46.5878 72.7125C46.5878 73.4553 46.307 73.9444 45.6819 73.9444C45.0569 73.9444 44.7489 73.4462 44.7489 72.6944L44.7761 72.7034ZM42.6836 74.3974H43.372V72.9933H44.1148C44.1095 73.1985 44.1467 73.4025 44.2242 73.5926C44.3017 73.7826 44.4177 73.9546 44.5649 74.0976C44.7122 74.2405 44.8874 74.3515 45.0797 74.4233C45.2719 74.4952 45.477 74.5264 45.6819 74.5151C45.9118 74.5151 46.139 74.4668 46.349 74.3733C46.5589 74.2798 46.7469 74.1432 46.9006 73.9724C47.0544 73.8015 47.1705 73.6003 47.2414 73.3817C47.3124 73.1631 47.3366 72.932 47.3124 72.7034C47.3124 71.707 46.8595 70.8917 45.7272 70.8917C45.3244 70.879 44.9323 71.0229 44.6334 71.2932C44.3344 71.5635 44.1518 71.939 44.1239 72.3411H43.372V71.0185H42.6836V74.3974Z" fill="white"/>
</svg>
