<svg width="55" height="56" viewBox="0 0 55 56" fill="none" xmlns="http://www.w3.org/2000/svg">
<path d="M44.9853 22.4047C45.9206 22.4047 46.7343 22.4047 47.5714 22.4047C48.0579 22.4016 48.5402 22.4951 48.9903 22.6798C49.4405 22.8644 49.8496 23.1366 50.194 23.4806C50.5385 23.8246 50.8114 24.2335 50.997 24.6838C51.1825 25.134 51.2771 25.6166 51.2753 26.1037C51.294 27.8923 51.294 29.6809 51.2753 31.4696C51.2714 31.8151 51.1745 32.1532 50.9947 32.4482C47.9736 37.0181 44.9417 41.5817 41.8988 46.1391C41.7936 46.3133 41.6433 46.4558 41.4638 46.5514C41.2843 46.647 41.0823 46.6922 40.8793 46.6823C38.8029 46.6823 36.7218 46.6823 34.6454 46.6542C34.2874 46.6304 33.9486 46.4831 33.6867 46.2375C32.1154 44.7064 30.5768 43.1378 28.9073 41.4615V42.1873C28.9073 46.3701 28.9073 50.5529 28.9073 54.7358C28.9073 55.7331 28.6361 55.9953 27.6212 56H1.16128C0.324177 56 0.00148935 55.6863 0.00148935 54.8435C0.00148935 49.6711 0.00148935 44.4972 0.00148935 39.3217C-0.038906 36.9577 0.743525 34.6532 2.21458 32.8036C3.68563 30.954 5.75362 29.6745 8.06387 29.1846C9.15486 29.0162 10.257 28.9301 11.3609 28.9271C11.59 28.9271 11.8285 28.9271 12.1231 28.9271C12.1231 28.3699 12.1231 27.8502 12.1231 27.3351C12.1072 27.2649 12.0769 27.1987 12.0343 27.1407C11.9916 27.0827 11.9375 27.0341 11.8753 26.998C8.83082 25.2094 7.38109 22.5452 7.46527 19.0381C7.46527 18.9445 7.46527 18.8461 7.46527 18.6682H6.52996C5.78578 18.6682 5.07208 18.3722 4.54586 17.8454C4.01965 17.3185 3.72403 16.6039 3.72403 15.8589C3.73264 15.1195 4.03207 14.4133 4.55735 13.8935C5.08263 13.3737 5.79142 13.0822 6.52996 13.0823H7.46527V12.4923C7.46527 10.4883 7.46527 8.48428 7.46527 6.48495C7.47141 4.76936 8.15386 3.12558 9.36418 1.91115C10.5745 0.696716 12.2148 0.009863 13.9283 0C15.8301 0 17.7334 0 19.6384 0C21.351 0.0135665 22.9891 0.703324 24.1967 1.91938C25.4043 3.13543 26.0837 4.77951 26.0873 6.49431C26.0873 10.8722 26.1154 15.2502 26.0873 19.6047C26.0639 22.7793 24.6142 25.1813 21.9158 26.8201C21.7539 26.8906 21.6201 27.0131 21.5354 27.1683C21.4507 27.3234 21.42 27.5024 21.4482 27.6769C21.4696 28.0918 21.4696 28.5075 21.4482 28.9224C22.3835 28.9224 23.2814 28.9505 24.184 28.9224C25.2741 28.8709 26.3621 29.0612 27.3703 29.4796C28.3784 29.8981 29.2817 30.5345 30.0156 31.3431C32.2884 33.7077 34.5987 36.0254 36.8948 38.39C36.9603 38.4555 37.0398 38.5164 37.1474 38.61L39.163 35.4589H36.2495C34.6033 35.4589 34.5005 35.3559 34.5051 33.7217C34.5051 32.3405 34.5051 30.9592 34.5051 29.5779C34.5051 28.1967 34.6688 27.986 36.1139 27.9906H37.2596C37.2596 26.586 37.3298 25.2234 37.2362 23.8562C37.1271 22.8343 36.9363 21.8228 36.6657 20.8314C36.6151 20.7084 36.5388 20.5975 36.4421 20.5063C36.3453 20.4151 36.2302 20.3456 36.1045 20.3023C35.3048 20.0729 34.4771 19.9465 33.6774 19.7171C31.9401 19.2326 30.4244 18.1601 29.3883 16.6822C28.3523 15.2043 27.86 13.4125 27.9954 11.612C28.0742 10.5181 28.491 9.47569 29.1879 8.62943C29.3095 8.47959 29.4311 8.33445 29.548 8.18462C27.7101 7.0281 27.7335 5.26288 28.1824 3.6475C28.3523 3.10954 28.6966 2.64373 29.1608 2.32396C29.6251 2.00419 30.1827 1.84875 30.7452 1.88228V3.62409C30.342 3.80827 30.0271 4.14336 29.868 4.55744C29.7088 4.97152 29.7182 5.43156 29.8941 5.8388C29.9524 6.03961 30.0761 6.21511 30.2457 6.3373C30.4152 6.4595 30.6207 6.52136 30.8294 6.51304C31.4093 6.51304 31.9938 6.51304 32.6626 6.51304C32.6626 5.93244 32.6626 5.37994 32.6626 4.82275C32.6626 4.04549 32.9853 3.71772 33.7475 3.71304H48.3758C49.096 3.71304 49.4327 4.05017 49.4421 4.78528C49.4421 5.32843 49.4421 5.87625 49.4421 6.48027C50.1435 6.48027 50.845 6.52241 51.5185 6.48027C51.6447 6.44691 51.7629 6.38821 51.8658 6.30772C51.9687 6.22723 52.0542 6.12663 52.1171 6.01204C52.2241 5.80639 52.2881 5.58103 52.3052 5.34975C52.3222 5.11847 52.292 4.88615 52.2162 4.66698C52.1405 4.44782 52.0209 4.24644 51.8647 4.07517C51.7085 3.9039 51.5191 3.76633 51.308 3.6709V1.91974C51.8655 1.86563 52.4248 2.00367 52.8934 2.31103C53.3619 2.61839 53.7117 3.07664 53.8848 3.61003C54.3992 5.34715 54.2683 7.13579 52.6268 8.09566C53.0957 8.83972 53.4994 9.62302 53.8333 10.4368C54.8528 13.6301 53.1132 17.507 49.8817 19.0943C48.6685 19.6037 47.4073 19.9896 46.117 20.2462C45.6868 20.3585 45.4343 20.5037 45.3548 20.9532C45.2753 21.4027 45.1162 21.8756 44.9853 22.4047ZM16.8558 34.9625C16.7202 35.0328 16.6781 35.0421 16.6547 35.0702L14.9197 36.798C14.1294 37.5893 13.6337 37.5472 12.9976 36.6575C11.7256 34.8689 10.4396 33.085 9.17689 31.2916C9.11267 31.1676 9.00589 31.0708 8.87617 31.0192C8.74646 30.9676 8.6025 30.9646 8.47073 31.0107C6.58472 31.4252 4.89839 32.4763 3.69444 33.9878C2.49049 35.4992 1.84214 37.3792 1.85808 39.3124C1.85808 44.0555 1.85808 48.8033 1.85808 53.5465C1.85808 53.7338 1.85808 53.9258 1.88614 54.113H4.69208V38.3151H6.5627V54.1084H27.0834V38.3104H28.7904C28.8886 38.5769 29.0223 38.8289 29.1879 39.0595C31.0024 40.9012 32.8294 42.7289 34.6688 44.5425C34.8478 44.7034 35.0784 44.7948 35.3188 44.8C36.9136 44.8234 38.5083 44.8 40.0983 44.8C40.2394 44.8123 40.3811 44.783 40.5058 44.7156C40.6305 44.6482 40.7327 44.5457 40.7998 44.4207C42.6704 41.5708 44.5629 38.724 46.4771 35.8803C46.5519 35.7632 46.6081 35.6321 46.7016 35.4542C44.99 35.4542 43.3579 35.4542 41.7304 35.4542C41.6157 35.4748 41.5065 35.5192 41.4098 35.5845C41.3132 35.6498 41.2312 35.7346 41.1692 35.8334C40.2012 37.313 39.2612 38.8114 38.3119 40.3003C37.7179 41.2368 37.1848 41.3023 36.4178 40.5298C35.0149 39.1251 33.6119 37.7204 32.2089 36.3157C31.1333 35.2247 30.0016 34.1759 29.0102 33.01C28.085 31.817 26.7372 31.0257 25.2456 30.8C25.098 30.7658 24.9433 30.7806 24.8049 30.8423C24.6665 30.904 24.5519 31.0091 24.4786 31.1418C23.1598 33.0147 21.8223 34.8876 20.4848 36.7605C19.9704 37.4769 19.4186 37.5284 18.7966 36.901C18.1746 36.2736 17.4965 35.6321 16.8558 34.9625ZM24.2167 12.1552C22.0329 12.127 19.903 11.4724 18.0795 10.269C16.2559 9.0657 14.8153 7.36406 13.9283 5.36588C13.4173 6.15378 12.7472 6.82581 11.961 7.3387C11.1749 7.85159 10.2902 8.19398 9.36395 8.34382C9.34892 8.44623 9.33955 8.5494 9.3359 8.65285C9.3359 12.3987 9.30316 16.1164 9.3359 19.8528C9.37354 21.2638 9.87728 22.6224 10.7683 23.7162C11.6594 24.81 12.8874 25.5771 14.2603 25.8977C15.5205 26.1242 16.8035 26.1965 18.0811 26.1131C19.5812 26.0572 21.0127 25.4696 22.1202 24.4551C23.2278 23.4405 23.9393 22.065 24.1279 20.5739C24.2457 19.2382 24.2817 17.8966 24.2354 16.5565C24.2494 15.105 24.2167 13.6488 24.2167 12.1552ZM42.7826 24.2448C42.9136 23.4348 43.0258 22.6528 43.1661 21.8803C43.6228 19.6724 44.4786 17.5667 45.6915 15.6669C47.534 12.5532 47.6837 9.1117 47.4919 5.63277H34.5051C34.5051 6.62073 34.5051 7.57124 34.5051 8.51706C34.4834 11.094 35.1572 13.6289 36.4553 15.8542C37.3661 17.2781 38.0655 18.8269 38.5316 20.4522C38.8403 21.6883 39.0227 22.9525 39.2705 24.2448H42.7826ZM15.0273 1.91974C15.3219 6.3679 19.4373 10.3197 24.2401 10.2074C24.2401 8.98997 24.2401 7.7679 24.2401 6.55051C24.2703 5.4291 23.8816 4.33673 23.1498 3.48719C22.4181 2.63764 21.396 2.09205 20.2837 1.95719C18.5333 1.8554 16.7789 1.84291 15.0273 1.91974ZM49.4 30.7906C49.4 29.1191 49.4374 27.5131 49.4 25.907C49.3886 25.5105 49.234 25.1316 48.9648 24.8406C48.6956 24.5496 48.3302 24.3662 47.9362 24.3244C46.9074 24.2308 45.8645 24.301 44.7795 24.301C44.7795 25.9445 44.7328 27.5505 44.7795 29.1518C44.8157 29.5949 45.0163 30.0084 45.3418 30.3108C45.6672 30.6133 46.0939 30.7828 46.5379 30.7859C47.4686 30.8328 48.3992 30.8047 49.4 30.8047V30.7906ZM49.428 8.57324C49.4638 10.2758 49.1946 11.9711 48.633 13.5786C48.0297 15.1425 47.2862 16.6502 46.5987 18.2C46.9307 18.1298 47.3236 18.0595 47.7117 17.9612C48.9783 17.6309 50.103 16.8966 50.9155 15.8693C51.7281 14.842 52.1843 13.5776 52.2153 12.2676C52.2383 11.4281 51.9747 10.6059 51.4679 9.93677C50.9612 9.26763 50.2416 8.79158 49.428 8.58729V8.57324ZM35.4404 18.1625C34.7764 16.6689 34.0375 15.1612 33.4342 13.5973C32.8709 11.9707 32.6001 10.257 32.6345 8.53579C32.3446 8.65285 32.1248 8.71839 31.9237 8.8214C30.343 9.62207 29.6462 11.1391 29.9642 13.1993C30.1824 14.5245 30.8426 15.7366 31.8371 16.638C32.8316 17.5393 34.1017 18.0767 35.4404 18.1625ZM36.4085 29.901V33.6094C37.6618 33.6094 38.8824 33.6094 40.0983 33.6094C40.1954 33.5858 40.2868 33.543 40.3671 33.4835C40.4474 33.424 40.5151 33.349 40.5659 33.2629C41.0102 32.6027 41.4264 31.9238 41.852 31.2495L42.6891 29.9151L36.4085 29.901ZM19.5729 28.0047H13.961C13.961 28.1451 13.961 28.4355 13.961 28.7258C13.961 29.0161 13.961 29.414 14.106 29.5966C14.9337 30.5331 15.8223 31.3853 16.7389 32.3217C17.6742 31.3853 18.5487 30.4957 19.4139 29.6107C19.4892 29.5261 19.5352 29.4193 19.5448 29.3064C19.5822 28.8241 19.5729 28.3418 19.5729 28.0047ZM9.36395 6.3913C11.4684 5.96521 13.2081 3.8301 12.9602 2.01806C11.9522 2.22646 11.0458 2.77394 10.3916 3.5695C9.73735 4.36507 9.37472 5.36083 9.36395 6.3913ZM42.8621 26.1692H39.1817V27.9672H42.8528L42.8621 26.1692ZM15.4341 33.5672C14.7011 32.9036 14.0019 32.2035 13.339 31.4696C12.7404 30.7298 12.0389 30.7391 11.1785 30.8609L14.0733 34.9204L15.4341 33.5672ZM18.1606 33.5344L19.4887 34.9064L22.3601 30.8843L22.2713 30.7251C21.7522 30.814 21.1021 30.7251 20.7467 31.0248C19.8426 31.8167 18.9794 32.6544 18.1606 33.5344ZM42.5909 33.5672H46.5753V32.6916L46.4631 32.8508L43.7975 31.6756L42.5909 33.5672ZM7.42787 14.9458C6.79185 14.9692 6.09504 14.7258 5.7443 15.4141C5.6852 15.5645 5.6588 15.7258 5.66686 15.8873C5.67493 16.0488 5.71727 16.2067 5.79107 16.3505C6.16987 16.9732 6.81991 16.7579 7.42787 16.7532V14.9458Z" fill="#D3990B"/>
<path d="M19.9564 20.7425C20.265 21.1405 20.5596 21.5244 20.8496 21.9084C20.915 21.9973 20.9665 22.105 21.0273 22.1987C18.8995 24.109 14.8168 24.1184 12.5019 22.1987L13.5822 20.7519C15.7147 22.1003 17.8285 22.1144 19.9564 20.7425Z" fill="#D3990B"/>
<path d="M14.9103 14.487C14.903 14.8547 14.7519 15.2048 14.4896 15.4622C14.2273 15.7195 13.8747 15.8637 13.5074 15.8636C13.1394 15.8574 12.7885 15.7068 12.5304 15.444C12.2723 15.1812 12.1277 14.8274 12.1278 14.4589C12.1339 14.0904 12.2845 13.7391 12.5469 13.4807C12.8093 13.2224 13.1627 13.0776 13.5308 13.0776C13.8996 13.0838 14.2512 13.2351 14.5094 13.4989C14.7676 13.7627 14.9116 14.1177 14.9103 14.487Z" fill="#D3990B"/>
<path d="M20.0639 13.0684C20.4311 13.0757 20.7808 13.227 21.0378 13.4896C21.2949 13.7522 21.4388 14.1053 21.4388 14.473C21.4314 14.8407 21.2804 15.1908 21.0181 15.4482C20.7558 15.7056 20.4031 15.8497 20.0358 15.8496C19.6686 15.8423 19.3189 15.691 19.0618 15.4284C18.8048 15.1658 18.6608 14.8127 18.6609 14.4449C18.6682 14.0773 18.8193 13.7272 19.0816 13.4698C19.3439 13.2124 19.6966 13.0683 20.0639 13.0684Z" fill="#D3990B"/>
<path d="M41.0524 13.0637C40.6823 13.0693 40.3149 13.0006 39.9719 12.8614C39.6289 12.7222 39.3173 12.5155 39.0556 12.2535C38.7939 11.9915 38.5874 11.6795 38.4484 11.3361C38.3094 10.9927 38.2407 10.6248 38.2464 10.2543C38.2439 9.88575 38.3149 9.52042 38.4553 9.17973C38.5957 8.83904 38.8027 8.52986 39.0641 8.27035C39.3254 8.01084 39.636 7.80621 39.9774 7.66849C40.3188 7.53076 40.6843 7.46272 41.0524 7.46834C41.4266 7.46801 41.797 7.54351 42.1413 7.69031C42.4856 7.83711 42.7967 8.05216 43.0558 8.32252C43.3149 8.59288 43.5167 8.91295 43.649 9.26345C43.7813 9.61395 43.8413 9.98763 43.8255 10.362C43.798 11.0826 43.4947 11.765 42.9784 12.268C42.4622 12.7709 41.7726 13.0558 41.0524 13.0637ZM41.0524 9.31783C40.8072 9.3271 40.5747 9.42875 40.4012 9.6024C40.2278 9.77605 40.1263 10.0089 40.117 10.2543C40.117 10.5027 40.2156 10.7408 40.391 10.9165C40.5664 11.0921 40.8043 11.1907 41.0524 11.1907C41.3004 11.1907 41.5383 11.0921 41.7137 10.9165C41.8891 10.7408 41.9877 10.5027 41.9877 10.2543C41.9852 10.1305 41.9583 10.0084 41.9085 9.8951C41.8586 9.78179 41.7868 9.67951 41.6972 9.59416C41.6077 9.50881 41.502 9.4421 41.3865 9.39788C41.271 9.35367 41.1479 9.33283 41.0243 9.33657L41.0524 9.31783Z" fill="#D3990B"/>
</svg>
