<svg width="55" height="56" viewBox="0 0 55 56" fill="none" xmlns="http://www.w3.org/2000/svg">
<path d="M27.5381 55.0435C20.2554 55.0561 13.2653 52.1749 8.10227 47.0324C2.93927 41.8899 0.0253177 34.9063 0.000133349 27.6147C-0.0111228 23.996 0.690338 20.4105 2.06438 17.0635C3.43843 13.7165 5.4581 10.6735 8.00784 8.10868C10.5576 5.54388 13.5874 3.50757 16.9239 2.11624C20.2604 0.724919 23.8382 0.00588378 27.4525 0.000268551C42.4602 -0.066387 54.9619 12.2839 55 27.2053C55.0237 42.6694 42.8977 54.9864 27.5381 55.0435ZM27.5381 1.87614C20.7724 1.87222 14.2801 4.54872 9.47868 9.32118C4.6773 14.0936 1.95699 20.5743 1.91177 27.3481C1.88607 30.7177 2.52543 34.0592 3.79312 37.1808C5.06082 40.3023 6.93188 43.1424 9.29888 45.5379C11.6659 47.9335 14.4822 49.8373 17.5861 51.1401C20.69 52.4429 24.0203 53.119 27.3859 53.1295C30.7477 53.1527 34.081 52.5111 37.1946 51.2414C40.3081 49.9716 43.1406 48.0989 45.5295 45.7305C47.9184 43.3621 49.8167 40.5448 51.1155 37.4401C52.4142 34.3354 53.0879 31.0045 53.0978 27.6385C53.1185 24.2632 52.4725 20.9171 51.1968 17.7927C49.9212 14.6682 48.0411 11.8272 45.6648 9.4329C43.2885 7.03863 40.4628 5.1384 37.3503 3.84152C34.2378 2.54464 30.8999 1.87671 27.5286 1.87614H27.5381Z" fill="#D3990B"/>
<path d="M51.2195 27.5671C51.2069 33.8576 48.6996 39.8856 44.2489 44.3257C39.7983 48.7657 33.7686 51.2542 27.4858 51.2441C24.3684 51.2429 21.282 50.6256 18.4035 49.4276C15.5249 48.2296 12.9109 46.4744 10.7113 44.2628C8.51162 42.0512 6.76965 39.4266 5.58523 36.5395C4.40081 33.6524 3.79724 30.5597 3.80913 27.4386C3.81474 24.3198 4.43446 21.2327 5.63285 18.354C6.83124 15.4752 8.58477 12.8613 10.7931 10.6618C13.0015 8.4622 15.6213 6.72018 18.5028 5.53535C21.3842 4.35053 24.4707 3.74615 27.5856 3.75679C33.8719 3.78074 39.8917 6.30172 44.323 10.7661C48.7542 15.2304 51.2346 21.2731 51.2195 27.5671ZM5.70174 27.4243C5.68775 33.2055 7.96038 38.7572 12.0228 42.8657C16.0853 46.9741 21.6071 49.3052 27.3812 49.3492C30.2545 49.3573 33.1014 48.7986 35.759 47.7049C38.4167 46.6112 40.8331 45.0039 42.8702 42.9749C44.9073 40.946 46.5251 38.535 47.6314 35.8799C48.7376 33.2247 49.3105 30.3774 49.3174 27.5005C49.3649 15.5691 39.6165 5.77074 27.5999 5.67552C21.8155 5.65652 16.2598 7.93573 12.1517 12.0131C8.04371 16.0904 5.71893 21.6328 5.68747 27.4243H5.70174Z" fill="#D3990B"/>
<path d="M36.0311 27.5243C36.0311 32.3521 32.165 36.0943 27.229 36.0562C22.7352 36.0562 18.9405 32.0902 18.9643 27.4862C18.973 26.3584 19.2039 25.2433 19.644 24.205C20.084 23.1667 20.7243 22.2256 21.5284 21.4356C22.3324 20.6456 23.2843 20.0223 24.3295 19.6014C25.3746 19.1805 26.4925 18.9703 27.6189 18.9829C29.8585 19.0215 31.9937 19.9375 33.5664 21.5344C35.1391 23.1312 36.0239 25.2817 36.0311 27.5243ZM32.0414 29.3478C31.466 28.7765 30.9809 28.2385 30.4341 27.7719C30.1871 27.5747 30.0058 27.307 29.9141 27.0044C29.8224 26.7017 29.8246 26.3783 29.9205 26.0769C30.0679 25.3961 30.163 24.701 30.2962 23.9059C29.4735 24.3344 28.7555 24.701 28.0517 25.0819C27.8661 25.195 27.6531 25.2548 27.4359 25.2548C27.2186 25.2548 27.0056 25.195 26.82 25.0819C26.121 24.701 25.3935 24.3391 24.5993 23.9202C24.6387 24.4093 24.715 24.8947 24.8276 25.3723C25.0525 25.8933 25.0801 26.4786 24.905 27.0185C24.7299 27.5584 24.3643 28.0158 23.8765 28.3052C23.4849 28.6283 23.1192 28.9817 22.7828 29.3621C23.6815 29.4907 24.4186 29.6145 25.1604 29.6954C25.4263 29.7086 25.6823 29.8001 25.8964 29.9585C26.1104 30.1169 26.2729 30.3351 26.3635 30.5857C26.6726 31.2856 27.0388 31.9617 27.4145 32.7282C27.8187 31.9141 28.1896 31.1809 28.5462 30.4381C28.6251 30.2452 28.7556 30.0777 28.9234 29.9542C29.0912 29.8307 29.2898 29.756 29.4973 29.7382C30.3247 29.6287 31.1331 29.4907 32.0414 29.3478ZM24.4329 21.6491C25.422 22.1681 26.335 22.6585 27.2861 23.1346C27.3363 23.1568 27.3905 23.1682 27.4454 23.1682C27.5002 23.1682 27.5545 23.1568 27.6047 23.1346C28.5557 22.6585 29.5068 22.1443 30.5292 21.6015C29.5867 21.1094 28.538 20.8565 27.4751 20.8648C26.4122 20.8731 25.3676 21.1424 24.4329 21.6491ZM32.398 23.0775C32.2173 24.1249 32.0461 25.0533 31.894 25.9817C31.8654 26.1531 31.8321 26.4007 31.9225 26.4959C32.5787 27.1815 33.2635 27.8433 34.0576 28.6241C34.21 27.632 34.1402 26.6184 33.8532 25.6566C33.5661 24.6948 33.0691 23.8089 32.398 23.0632V23.0775ZM22.5165 23.2822C21.3086 24.3296 20.5288 26.9911 21.0328 28.4147C21.6701 27.7909 22.2978 27.1958 22.8969 26.5816C22.942 26.5209 22.9741 26.4515 22.9913 26.3778C23.0085 26.304 23.0103 26.2276 22.9968 26.1531C22.8494 25.1866 22.6877 24.2392 22.5165 23.2679V23.2822ZM29.017 33.8947C30.4436 33.7852 32.5407 32.295 32.8831 31.1904C32.0366 31.3142 31.2044 31.4284 30.3723 31.5617C30.3089 31.5746 30.2488 31.6002 30.1957 31.637C30.1425 31.6738 30.0974 31.7211 30.0632 31.776C29.7065 32.4521 29.3736 33.152 29.017 33.8804V33.8947ZM25.8975 33.9614C25.5171 33.1758 25.1937 32.5044 24.8561 31.8379C24.8017 31.7236 24.7068 31.6336 24.5898 31.5856C23.7671 31.4475 22.9397 31.338 21.9982 31.1999C22.9161 32.5686 24.3035 33.5528 25.8975 33.9661V33.9614Z" fill="#D3990B"/>
<path d="M41.59 19.5446L42.7408 16.7165L44.505 17.4212C43.9867 18.7257 43.5111 19.9969 42.9785 21.2301C42.7428 21.7229 42.7086 22.2884 42.8834 22.806C43.202 23.8106 43.3827 24.8628 43.63 25.9436L46.0362 24.758L46.9017 26.453C46.0077 26.9005 45.1612 27.3481 44.2958 27.748C44.076 27.8164 43.8846 27.9549 43.7507 28.1422C43.6168 28.3296 43.5477 28.5556 43.5539 28.7859C43.5064 29.7001 43.3019 30.6047 43.1592 31.5807L46.117 30.419L46.8256 32.1854C45.4608 32.7329 44.1341 33.2804 42.7931 33.7899C42.4315 33.9314 42.1373 34.2055 41.9704 34.5564C41.3284 35.6848 40.6389 36.7846 39.9542 37.9273H42.6599V39.8317H39.9637C37.7287 39.8317 37.7287 39.8317 35.8741 41.3458L38.0948 41.7505L37.8095 43.5644C35.7505 43.5264 33.8103 42.5503 31.7037 42.9931C31.3498 42.2089 31.2436 41.3351 31.3994 40.4888C31.6371 39.2366 31.6704 37.9463 31.7988 36.6132L33.7009 36.7799C33.5963 37.9892 33.487 39.1604 33.3728 40.4316C34.5314 39.9438 35.6027 39.27 36.5446 38.4367C36.635 38.3558 36.6112 38.0796 36.5446 37.9225C36.1594 36.7037 35.7505 35.4896 35.332 34.2231L37.1343 33.6185C37.4957 34.6802 37.8428 35.6991 38.2518 36.9179L40.3536 33.7565L37.6811 30.6475L39.1077 29.3906L41.0098 31.576H41.2048C41.3665 30.4857 41.5424 29.3954 41.6803 28.3003C41.6803 28.167 41.4616 27.9528 41.2999 27.8671C40.3917 27.3909 39.4739 26.9482 38.4895 26.4387L39.3217 24.72L41.5377 25.815L41.7136 25.7436C41.4235 24.6819 41.143 23.6154 40.8339 22.5584C40.8054 22.4584 40.6009 22.3775 40.463 22.3537C39.5119 22.187 38.5609 22.0442 37.6098 21.8776C37.3768 21.8395 37.1343 21.7919 36.8632 21.7395L37.158 19.8779L39.8448 20.2778C39.2789 19.5161 38.8319 18.8733 38.3279 18.2829C38.228 18.1639 37.8904 18.1972 37.6764 18.2353C36.8252 18.3782 35.9787 18.5496 35.0752 18.7114L34.7281 16.8498L36.5399 16.4785L34.6377 15.0977L35.5888 13.4456L37.9427 15.0787V12.2982H39.8448V13.0219C39.8448 13.4599 39.8448 13.8932 39.8448 14.3264C39.8448 15.2787 39.6879 16.2833 39.9779 17.1355C40.268 17.9877 41.0098 18.7305 41.59 19.5446Z" fill="#D3990B"/>
<path d="M17.5092 43.6454L17.1763 41.7885L19.164 41.3981C18.4123 40.7464 17.6074 40.1587 16.7578 39.6413C16.1539 39.3318 15.374 39.3651 14.675 39.2556L11.9169 38.8367L12.1737 36.9655L14.5514 37.2703C13.9665 36.2276 13.4291 35.223 12.8442 34.247C12.6945 34.0763 12.4887 33.9648 12.2641 33.9327C11.0515 33.6804 9.82936 33.4566 8.53116 33.2043L8.88781 31.3284L11.9027 31.895C11.7315 30.6475 11.5841 29.4382 11.3986 28.2337C11.3364 28.0138 11.2025 27.821 11.0182 27.6861C10.0671 26.9053 9.11606 26.1435 8.10794 25.3294L9.30153 23.8392L11.4319 25.5436C11.7172 24.42 12.0073 23.3488 12.2498 22.2632C12.2831 22.1156 12.1404 21.9014 12.0358 21.749C11.2417 20.6445 10.4333 19.5446 9.59635 18.4163L11.1323 17.2926L13.139 20.0208C13.8381 19.04 14.5276 18.1163 15.1886 17.1308C15.2647 17.0165 15.1886 16.7975 15.1886 16.6546C14.9365 15.4406 14.6703 14.2265 14.4135 13.0076C14.3907 12.8499 14.378 12.6909 14.3754 12.5315L16.1919 12.1649L16.872 15.3453L19.592 13.4409L20.543 15.112L18.6932 16.3499L20.4337 16.9403L19.8345 18.7305C19.0214 18.4591 18.2605 18.1972 17.4901 17.9639C17.3332 17.9163 17.0527 17.9211 16.9718 18.0211C16.3394 18.7924 15.745 19.5922 15.0364 20.5159L17.2762 20.3683L17.4426 22.2728C16.4392 22.3537 15.4977 22.4204 14.5609 22.5251C14.4652 22.5426 14.3749 22.5823 14.2973 22.641C14.2197 22.6997 14.1569 22.7758 14.1139 22.8631C13.8286 23.8154 13.586 24.7914 13.3293 25.7627L13.4672 25.8626L15.7022 24.7771L16.5534 26.4625C15.6023 26.9386 14.7083 27.4148 13.7858 27.8575C13.7069 27.8789 13.6331 27.9159 13.5687 27.9662C13.5043 28.0166 13.4506 28.0793 13.4107 28.1507C13.3709 28.2221 13.3456 28.3007 13.3365 28.382C13.3275 28.4633 13.3347 28.5456 13.3578 28.6241C13.529 29.6096 13.6621 30.6047 13.8333 31.7855L15.9114 29.4382L17.338 30.6761L14.6655 33.7899L16.6437 36.8037L16.8197 36.7751L17.8848 33.6613L19.6871 34.2565C19.2924 35.442 18.9453 36.5894 18.522 37.713C18.4656 37.8077 18.43 37.9134 18.4175 38.023C18.4051 38.1325 18.4161 38.2435 18.4499 38.3484C18.4836 38.4534 18.5393 38.55 18.6133 38.6317C18.6872 38.7134 18.7777 38.7784 18.8787 38.8224C19.7774 39.3747 20.6619 39.9603 21.6748 40.6126L21.3182 36.8275L23.2203 36.637C23.3439 37.8892 23.4533 39.0842 23.5912 40.2745C23.634 40.6316 23.8099 40.9744 23.8385 41.3315C23.8348 41.6212 23.7867 41.9086 23.6958 42.1837C23.6245 42.4884 23.5246 42.7836 23.439 43.0836C21.4989 42.5599 19.7251 43.4407 17.8848 43.5978C17.7802 43.593 17.6851 43.6168 17.5092 43.6454Z" fill="#D3990B"/>
</svg>
