<svg width="71" height="68" viewBox="0 0 71 68" fill="none" xmlns="http://www.w3.org/2000/svg">
<path d="M59.5621 18.9888C61.2823 18.9888 62.6769 17.5942 62.6769 15.874C62.6769 14.1537 61.2823 12.7592 59.5621 12.7592C57.8418 12.7592 56.4473 14.1537 56.4473 15.874C56.4473 17.5942 57.8418 18.9888 59.5621 18.9888Z" stroke="#D3990B" stroke-width="2" stroke-miterlimit="10"/>
<path d="M9.04871 40.6647C10.286 40.6647 11.2891 39.6616 11.2891 38.4243C11.2891 37.187 10.286 36.184 9.04871 36.184C7.81139 36.184 6.80835 37.187 6.80835 38.4243C6.80835 39.6616 7.81139 40.6647 9.04871 40.6647Z" stroke="#D3990B" stroke-width="2" stroke-miterlimit="10"/>
<path d="M17.1484 40.6647C18.3858 40.6647 19.3888 39.6616 19.3888 38.4243C19.3888 37.187 18.3858 36.184 17.1484 36.184C15.9111 36.184 14.9081 37.187 14.9081 38.4243C14.9081 39.6616 15.9111 40.6647 17.1484 40.6647Z" stroke="#D3990B" stroke-width="2" stroke-miterlimit="10"/>
<path d="M8.11044 56.1366L11.2891 38.7435" stroke="#D3990B" stroke-width="2" stroke-miterlimit="10"/>
<path d="M18.0803 56.1366L14.9081 38.7435" stroke="#D3990B" stroke-width="2" stroke-miterlimit="10"/>
<path d="M30.431 40.5626C31.6683 40.5626 32.6714 39.5596 32.6714 38.3223C32.6714 37.085 31.6683 36.0819 30.431 36.0819C29.1937 36.0819 28.1907 37.085 28.1907 38.3223C28.1907 39.5596 29.1937 40.5626 30.431 40.5626Z" stroke="#D3990B" stroke-width="2" stroke-miterlimit="10"/>
<path d="M38.5372 40.5626C39.7745 40.5626 40.7775 39.5596 40.7775 38.3223C40.7775 37.085 39.7745 36.0819 38.5372 36.0819C37.2999 36.0819 36.2968 37.085 36.2968 38.3223C36.2968 39.5596 37.2999 40.5626 38.5372 40.5626Z" stroke="#D3990B" stroke-width="2" stroke-miterlimit="10"/>
<path d="M29.4991 56.0345L32.6778 38.635" stroke="#D3990B" stroke-width="2" stroke-miterlimit="10"/>
<path d="M39.4691 56.0345L36.2904 38.635" stroke="#D3990B" stroke-width="2" stroke-miterlimit="10"/>
<path d="M51.4176 40.8499C52.6549 40.8499 53.658 39.8468 53.658 38.6095C53.658 37.3722 52.6549 36.3691 51.4176 36.3691C50.1803 36.3691 49.1773 37.3722 49.1773 38.6095C49.1773 39.8468 50.1803 40.8499 51.4176 40.8499Z" stroke="#D3990B" stroke-width="2" stroke-miterlimit="10"/>
<path d="M59.5174 40.8499C60.7547 40.8499 61.7577 39.8468 61.7577 38.6095C61.7577 37.3722 60.7547 36.3691 59.5174 36.3691C58.2801 36.3691 57.277 37.3722 57.277 38.6095C57.277 39.8468 58.2801 40.8499 59.5174 40.8499Z" stroke="#D3990B" stroke-width="2" stroke-miterlimit="10"/>
<path d="M50.4793 56.3217L53.658 38.9286" stroke="#D3990B" stroke-width="2" stroke-miterlimit="10"/>
<path d="M60.4493 56.3217L57.277 38.9286" stroke="#D3990B" stroke-width="2" stroke-miterlimit="10"/>
<path d="M63.596 56.3217H4.80417V61.3513H63.596V56.3217Z" stroke="#D3990B" stroke-width="2" stroke-miterlimit="10"/>
<path d="M67.4065 61.3195H1V66.3491H67.4065V61.3195Z" stroke="#D3990B" stroke-width="2" stroke-miterlimit="10"/>
<path d="M24.0227 15.4591H45.2327" stroke="#D3990B" stroke-width="2" stroke-miterlimit="10"/>
<path d="M12.3295 28.8438H56.0771C57.0645 28.8437 58.0422 29.0382 58.9544 29.4161C59.8667 29.794 60.6956 30.3478 61.3937 31.046C62.0919 31.7442 62.6458 32.5731 63.0236 33.4853C63.4015 34.3975 63.596 35.3753 63.596 36.3627V36.3627H4.82968C4.82967 34.3718 5.61922 32.4623 7.02515 31.0528C8.43108 29.6432 10.3386 28.8488 12.3295 28.8438V28.8438Z" stroke="#D3990B" stroke-width="2" stroke-miterlimit="10"/>
<path d="M45.2327 15.4591H24.0227V28.8438H45.2327V15.4591Z" stroke="#D3990B" stroke-width="2" stroke-miterlimit="10"/>
<path d="M34.6245 4.8573C37.4369 4.8573 40.1341 5.97407 42.1234 7.96211C44.1126 9.95015 45.231 12.6467 45.2327 15.4591V15.4591H24.0227C24.0244 12.6479 25.1419 9.95222 27.1298 7.96436C29.1176 5.97651 31.8133 4.85899 34.6245 4.8573V4.8573Z" stroke="#D3990B" stroke-width="2" stroke-miterlimit="10"/>
<path d="M34.6245 0V4.8573" stroke="#D3990B" stroke-width="2" stroke-miterlimit="10"/>
<path d="M28.146 21.0249V28.8438" stroke="#D3990B" stroke-width="2" stroke-miterlimit="10"/>
<path d="M34.9117 21.0249V28.8438" stroke="#D3990B" stroke-width="2" stroke-miterlimit="10"/>
<path d="M41.5307 21.0249V28.8438" stroke="#D3990B" stroke-width="2" stroke-miterlimit="10"/>
<path d="M59.5621 26.2842V22.3907" stroke="#D3990B" stroke-width="2" stroke-miterlimit="10"/>
<path d="M59.5621 9.36359V5.47009" stroke="#D3990B" stroke-width="2" stroke-miterlimit="10"/>
<path d="M49.3049 15.874H53.1984" stroke="#D3990B" stroke-width="2" stroke-miterlimit="10"/>
<path d="M66.2257 15.874H70.1128" stroke="#D3990B" stroke-width="2" stroke-miterlimit="10"/>
<path d="M52.2091 8.521L54.9601 11.272" stroke="#D3990B" stroke-width="2" stroke-miterlimit="10"/>
<path d="M64.1704 20.4823L66.9214 23.2333" stroke="#D3990B" stroke-width="2" stroke-miterlimit="10"/>
<path d="M52.3942 23.2333L55.1452 20.4823" stroke="#D3990B" stroke-width="2" stroke-miterlimit="10"/>
<path d="M64.3555 11.272L67.1065 8.521" stroke="#D3990B" stroke-width="2" stroke-miterlimit="10"/>
<path d="M4.61264 17.6803H18.6548C18.6548 13.0528 15.9102 12.3379 13.0762 13.2124C10.3189 8.52102 4.75944 10.3848 4.61264 17.6803Z" stroke="#D3990B" stroke-width="2" stroke-miterlimit="10"/>
</svg>
