<svg width="55" height="42" viewBox="0 0 55 42" fill="none" xmlns="http://www.w3.org/2000/svg">
<path d="M27.3547 41.9908H1.26646C0.242322 41.9908 0 41.7437 0 40.7091C0 27.5865 0 14.4501 0 1.30007C0 0.242628 0.24689 0 1.31218 0H53.5938C54.3848 0 54.6911 0.320444 54.6911 1.16731V40.819C54.6911 41.7345 54.403 42 53.4932 42L27.3547 41.9908ZM15.4947 1.84938C15.4947 3.25014 15.4947 4.59597 15.4947 5.9418C15.5076 6.27365 15.6226 6.59341 15.8239 6.85733C16.7915 8.0116 17.3218 9.47032 17.3218 10.9772C17.3218 12.4841 16.7915 13.9428 15.8239 15.0971C15.6337 15.343 15.525 15.6423 15.513 15.9531C15.4856 18.1962 15.513 20.4392 15.4765 22.6823C15.4367 23.0369 15.2654 23.3637 14.9964 23.5978C14.6581 23.8862 14.2511 23.7214 13.9082 23.4559C13.0624 22.8105 12.1937 22.1925 11.3616 21.5287C11.3101 21.4703 11.2468 21.4235 11.1758 21.3914C11.1049 21.3593 11.0279 21.3428 10.9501 21.3428C10.8723 21.3428 10.7953 21.3593 10.7244 21.3914C10.6534 21.4235 10.5901 21.4703 10.5386 21.5287C9.73851 22.1696 8.90182 22.7601 8.08799 23.3598C7.72222 23.639 7.36103 23.8542 6.89011 23.6207C6.41919 23.3873 6.37803 22.9707 6.37803 22.5129C6.37803 20.3065 6.37803 18.1001 6.37803 15.8936C6.37017 15.6012 6.26926 15.319 6.09 15.088C5.09422 13.9296 4.54846 12.4509 4.55266 10.9226C4.55686 9.39429 5.11072 7.91862 6.11285 6.76578C6.24433 6.64265 6.33657 6.48341 6.37803 6.30801C6.37803 4.82943 6.37803 3.35086 6.37803 1.85854H1.8654V40.1369H52.8531V1.84938H15.4947ZM10.8541 15.4679C11.4477 15.4844 12.0388 15.3834 12.5934 15.1709C13.1481 14.9585 13.6554 14.6385 14.0865 14.2295C14.5175 13.8205 14.8637 13.3304 15.1054 12.7872C15.347 12.2441 15.4793 11.6586 15.4947 11.0642C15.5093 10.4695 15.4063 9.87787 15.1917 9.32319C14.9771 8.76851 14.6551 8.26177 14.2443 7.83211C13.8334 7.40245 13.3418 7.05834 12.7976 6.81956C12.2535 6.58078 11.6676 6.45205 11.0736 6.44077C10.4788 6.42062 9.88587 6.51834 9.32893 6.72832C8.77198 6.9383 8.26197 7.2564 7.82819 7.66433C7.39441 8.07227 7.04542 8.562 6.80126 9.1054C6.5571 9.64879 6.42259 10.2351 6.40547 10.8307C6.38905 11.4288 6.49157 12.0242 6.70704 12.5822C6.92252 13.1403 7.24666 13.6499 7.66061 14.0814C8.07456 14.5129 8.57006 14.8577 9.1183 15.0957C9.66654 15.3337 10.2566 15.4602 10.8541 15.4679ZM13.6385 5.1453V1.86311H8.24344V5.15445C9.08924 4.76489 10.009 4.56243 10.94 4.56085C11.871 4.55927 12.7914 4.75862 13.6385 5.1453ZM8.21601 20.8741C8.2983 20.8741 8.32116 20.8741 8.33488 20.8741C8.85152 20.4942 9.37274 20.1142 9.88481 19.7251C10.9044 18.9607 10.973 18.9607 12.0017 19.7251C12.5275 20.128 13.067 20.5216 13.6522 20.9565V16.8961C12.7575 17.1042 11.8479 17.2419 10.9318 17.3081C10.0171 17.2426 9.10903 17.1049 8.21601 16.8961V20.8741Z" fill="#D3990B"/>
<path d="M45.547 28.2716H9.15787V26.5092H45.547V28.2716Z" fill="#D3990B"/>
<path d="M45.5698 30.1621V31.9062H9.15787V30.1621H45.5698Z" fill="#D3990B"/>
<path d="M39.1689 35.5775H16.4503V33.8105H39.1689V35.5775Z" fill="#D3990B"/>
<path d="M37.3538 19.2124V20.9657H18.2609V19.2124H37.3538Z" fill="#D3990B"/>
<path d="M20.9904 8.17561V6.42236H34.6152V8.17561H20.9904Z" fill="#D3990B"/>
<path d="M22.8146 10.9132V9.15991H32.7726V10.9132H22.8146Z" fill="#D3990B"/>
<path d="M22.8192 23.6985V21.9361H32.7726V23.6985H22.8192Z" fill="#D3990B"/>
<path d="M49.2458 8.18029V5.49776H46.53V3.66669C47.7919 3.66669 49.0355 3.63922 50.2791 3.66669C50.3852 3.66952 50.4896 3.69383 50.5861 3.73816C50.6826 3.78248 50.7691 3.84591 50.8404 3.92461C50.9118 4.00332 50.9665 4.09566 51.0012 4.19609C51.036 4.29653 51.05 4.40296 51.0426 4.50898C51.0426 5.72206 51.0426 6.93057 51.0426 8.17112L49.2458 8.18029Z" fill="#D3990B"/>
<path d="M3.64849 33.7922H5.4316V36.493H8.17484V38.3241C6.91295 38.3241 5.66935 38.3241 4.42575 38.3241C4.32391 38.3235 4.22321 38.3026 4.12958 38.2625C4.03596 38.2224 3.9513 38.1639 3.88058 38.0905C3.80985 38.0172 3.7545 37.9304 3.71779 37.8353C3.68107 37.7402 3.66373 37.6387 3.66678 37.5368C3.63021 36.3054 3.64849 35.074 3.64849 33.7922Z" fill="#D3990B"/>
<path d="M46.5162 38.3379V36.5068H49.2183V33.806H51.0472C51.0472 35.0694 51.0792 36.3328 51.0472 37.5963C51.0414 37.6975 51.0155 37.7967 50.9711 37.8878C50.9266 37.979 50.8645 38.0604 50.7883 38.1273C50.7122 38.1942 50.6235 38.2452 50.5274 38.2774C50.4313 38.3097 50.3298 38.3224 50.2288 38.315C48.9943 38.347 47.7873 38.3379 46.5162 38.3379Z" fill="#D3990B"/>
</svg>
